%TF.GenerationSoftware,KiCad,Pcbnew,(5.1.2)-2*%
%TF.CreationDate,2020-05-27T12:26:41-04:00*%
%TF.ProjectId,LED Dice Kit 001a,4c454420-4469-4636-9520-4b6974203030,rev?*%
%TF.SameCoordinates,Original*%
%TF.FileFunction,Soldermask,Bot*%
%TF.FilePolarity,Negative*%
%FSLAX46Y46*%
G04 Gerber Fmt 4.6, Leading zero omitted, Abs format (unit mm)*
G04 Created by KiCad (PCBNEW (5.1.2)-2) date 2020-05-27 12:26:41*
%MOMM*%
%LPD*%
G04 APERTURE LIST*
%ADD10C,0.100000*%
G04 APERTURE END LIST*
D10*
G36*
X88023000Y-147967000D02*
G01*
X86221000Y-147967000D01*
X86221000Y-146165000D01*
X88023000Y-146165000D01*
X88023000Y-147967000D01*
X88023000Y-147967000D01*
G37*
G36*
X103474549Y-145647116D02*
G01*
X103585734Y-145669232D01*
X103795203Y-145755997D01*
X103983720Y-145881960D01*
X104144040Y-146042280D01*
X104270003Y-146230797D01*
X104356768Y-146440266D01*
X104401000Y-146662636D01*
X104401000Y-146889364D01*
X104356768Y-147111734D01*
X104270003Y-147321203D01*
X104144040Y-147509720D01*
X103983720Y-147670040D01*
X103795203Y-147796003D01*
X103585734Y-147882768D01*
X103474549Y-147904884D01*
X103363365Y-147927000D01*
X103136635Y-147927000D01*
X103025451Y-147904884D01*
X102914266Y-147882768D01*
X102704797Y-147796003D01*
X102516280Y-147670040D01*
X102355960Y-147509720D01*
X102229997Y-147321203D01*
X102143232Y-147111734D01*
X102099000Y-146889364D01*
X102099000Y-146662636D01*
X102143232Y-146440266D01*
X102229997Y-146230797D01*
X102355960Y-146042280D01*
X102516280Y-145881960D01*
X102704797Y-145755997D01*
X102914266Y-145669232D01*
X103025451Y-145647116D01*
X103136635Y-145625000D01*
X103363365Y-145625000D01*
X103474549Y-145647116D01*
X103474549Y-145647116D01*
G37*
G36*
X96974549Y-145647116D02*
G01*
X97085734Y-145669232D01*
X97295203Y-145755997D01*
X97483720Y-145881960D01*
X97644040Y-146042280D01*
X97770003Y-146230797D01*
X97856768Y-146440266D01*
X97901000Y-146662636D01*
X97901000Y-146889364D01*
X97856768Y-147111734D01*
X97770003Y-147321203D01*
X97644040Y-147509720D01*
X97483720Y-147670040D01*
X97295203Y-147796003D01*
X97085734Y-147882768D01*
X96974549Y-147904884D01*
X96863365Y-147927000D01*
X96636635Y-147927000D01*
X96525451Y-147904884D01*
X96414266Y-147882768D01*
X96204797Y-147796003D01*
X96016280Y-147670040D01*
X95855960Y-147509720D01*
X95729997Y-147321203D01*
X95643232Y-147111734D01*
X95599000Y-146889364D01*
X95599000Y-146662636D01*
X95643232Y-146440266D01*
X95729997Y-146230797D01*
X95855960Y-146042280D01*
X96016280Y-145881960D01*
X96204797Y-145755997D01*
X96414266Y-145669232D01*
X96525451Y-145647116D01*
X96636635Y-145625000D01*
X96863365Y-145625000D01*
X96974549Y-145647116D01*
X96974549Y-145647116D01*
G37*
G36*
X121496162Y-144364368D02*
G01*
X121805724Y-144492593D01*
X121805725Y-144492594D01*
X122084324Y-144678747D01*
X122321253Y-144915676D01*
X122444650Y-145100353D01*
X122507407Y-145194276D01*
X122635632Y-145503838D01*
X122701000Y-145832465D01*
X122701000Y-146167535D01*
X122635632Y-146496162D01*
X122507407Y-146805724D01*
X122451520Y-146889365D01*
X122321253Y-147084324D01*
X122084324Y-147321253D01*
X121898170Y-147445637D01*
X121805724Y-147507407D01*
X121496162Y-147635632D01*
X121167535Y-147701000D01*
X120832465Y-147701000D01*
X120503838Y-147635632D01*
X120194276Y-147507407D01*
X120101830Y-147445637D01*
X119915676Y-147321253D01*
X119678747Y-147084324D01*
X119548480Y-146889365D01*
X119492593Y-146805724D01*
X119364368Y-146496162D01*
X119299000Y-146167535D01*
X119299000Y-145832465D01*
X119364368Y-145503838D01*
X119492593Y-145194276D01*
X119555350Y-145100353D01*
X119678747Y-144915676D01*
X119915676Y-144678747D01*
X120194275Y-144492594D01*
X120194276Y-144492593D01*
X120503838Y-144364368D01*
X120832465Y-144299000D01*
X121167535Y-144299000D01*
X121496162Y-144364368D01*
X121496162Y-144364368D01*
G37*
G36*
X79496162Y-144364368D02*
G01*
X79805724Y-144492593D01*
X79805725Y-144492594D01*
X80084324Y-144678747D01*
X80321253Y-144915676D01*
X80444650Y-145100353D01*
X80507407Y-145194276D01*
X80635632Y-145503838D01*
X80701000Y-145832465D01*
X80701000Y-146167535D01*
X80635632Y-146496162D01*
X80507407Y-146805724D01*
X80451520Y-146889365D01*
X80321253Y-147084324D01*
X80084324Y-147321253D01*
X79898170Y-147445637D01*
X79805724Y-147507407D01*
X79496162Y-147635632D01*
X79167535Y-147701000D01*
X78832465Y-147701000D01*
X78503838Y-147635632D01*
X78194276Y-147507407D01*
X78101830Y-147445637D01*
X77915676Y-147321253D01*
X77678747Y-147084324D01*
X77548480Y-146889365D01*
X77492593Y-146805724D01*
X77364368Y-146496162D01*
X77299000Y-146167535D01*
X77299000Y-145832465D01*
X77364368Y-145503838D01*
X77492593Y-145194276D01*
X77555350Y-145100353D01*
X77678747Y-144915676D01*
X77915676Y-144678747D01*
X78194275Y-144492594D01*
X78194276Y-144492593D01*
X78503838Y-144364368D01*
X78832465Y-144299000D01*
X79167535Y-144299000D01*
X79496162Y-144364368D01*
X79496162Y-144364368D01*
G37*
G36*
X87235512Y-143629927D02*
G01*
X87384812Y-143659624D01*
X87548784Y-143727544D01*
X87696354Y-143826147D01*
X87821853Y-143951646D01*
X87920456Y-144099216D01*
X87988376Y-144263188D01*
X88009355Y-144368659D01*
X88023000Y-144437258D01*
X88023000Y-144614742D01*
X88018073Y-144639512D01*
X87988376Y-144788812D01*
X87920456Y-144952784D01*
X87821853Y-145100354D01*
X87696354Y-145225853D01*
X87548784Y-145324456D01*
X87384812Y-145392376D01*
X87235512Y-145422073D01*
X87210742Y-145427000D01*
X87033258Y-145427000D01*
X87008488Y-145422073D01*
X86859188Y-145392376D01*
X86695216Y-145324456D01*
X86547646Y-145225853D01*
X86422147Y-145100354D01*
X86323544Y-144952784D01*
X86255624Y-144788812D01*
X86225927Y-144639512D01*
X86221000Y-144614742D01*
X86221000Y-144437258D01*
X86234645Y-144368659D01*
X86255624Y-144263188D01*
X86323544Y-144099216D01*
X86422147Y-143951646D01*
X86547646Y-143826147D01*
X86695216Y-143727544D01*
X86859188Y-143659624D01*
X87008488Y-143629927D01*
X87033258Y-143625000D01*
X87210742Y-143625000D01*
X87235512Y-143629927D01*
X87235512Y-143629927D01*
G37*
G36*
X108516823Y-142925313D02*
G01*
X108677242Y-142973976D01*
X108744112Y-143009719D01*
X108825078Y-143052996D01*
X108954659Y-143159341D01*
X109061004Y-143288922D01*
X109061005Y-143288924D01*
X109140024Y-143436758D01*
X109188687Y-143597177D01*
X109205117Y-143764000D01*
X109188687Y-143930823D01*
X109140024Y-144091242D01*
X109069114Y-144223906D01*
X109061004Y-144239078D01*
X108954659Y-144368659D01*
X108825078Y-144475004D01*
X108825076Y-144475005D01*
X108677242Y-144554024D01*
X108516823Y-144602687D01*
X108391804Y-144615000D01*
X107508196Y-144615000D01*
X107383177Y-144602687D01*
X107222758Y-144554024D01*
X107074924Y-144475005D01*
X107074922Y-144475004D01*
X106945341Y-144368659D01*
X106838996Y-144239078D01*
X106830886Y-144223906D01*
X106759976Y-144091242D01*
X106711313Y-143930823D01*
X106694883Y-143764000D01*
X106711313Y-143597177D01*
X106759976Y-143436758D01*
X106838995Y-143288924D01*
X106838996Y-143288922D01*
X106945341Y-143159341D01*
X107074922Y-143052996D01*
X107155888Y-143009719D01*
X107222758Y-142973976D01*
X107383177Y-142925313D01*
X107508196Y-142913000D01*
X108391804Y-142913000D01*
X108516823Y-142925313D01*
X108516823Y-142925313D01*
G37*
G36*
X116821000Y-144615000D02*
G01*
X114319000Y-144615000D01*
X114319000Y-142913000D01*
X116821000Y-142913000D01*
X116821000Y-144615000D01*
X116821000Y-144615000D01*
G37*
G36*
X96974549Y-141147116D02*
G01*
X97085734Y-141169232D01*
X97295203Y-141255997D01*
X97483720Y-141381960D01*
X97644040Y-141542280D01*
X97770003Y-141730797D01*
X97856768Y-141940266D01*
X97901000Y-142162636D01*
X97901000Y-142389364D01*
X97856768Y-142611734D01*
X97770003Y-142821203D01*
X97644040Y-143009720D01*
X97483720Y-143170040D01*
X97295203Y-143296003D01*
X97085734Y-143382768D01*
X96974549Y-143404884D01*
X96863365Y-143427000D01*
X96636635Y-143427000D01*
X96525451Y-143404884D01*
X96414266Y-143382768D01*
X96204797Y-143296003D01*
X96016280Y-143170040D01*
X95855960Y-143009720D01*
X95729997Y-142821203D01*
X95643232Y-142611734D01*
X95599000Y-142389364D01*
X95599000Y-142162636D01*
X95643232Y-141940266D01*
X95729997Y-141730797D01*
X95855960Y-141542280D01*
X96016280Y-141381960D01*
X96204797Y-141255997D01*
X96414266Y-141169232D01*
X96525451Y-141147116D01*
X96636635Y-141125000D01*
X96863365Y-141125000D01*
X96974549Y-141147116D01*
X96974549Y-141147116D01*
G37*
G36*
X103474549Y-141147116D02*
G01*
X103585734Y-141169232D01*
X103795203Y-141255997D01*
X103983720Y-141381960D01*
X104144040Y-141542280D01*
X104270003Y-141730797D01*
X104356768Y-141940266D01*
X104401000Y-142162636D01*
X104401000Y-142389364D01*
X104356768Y-142611734D01*
X104270003Y-142821203D01*
X104144040Y-143009720D01*
X103983720Y-143170040D01*
X103795203Y-143296003D01*
X103585734Y-143382768D01*
X103474549Y-143404884D01*
X103363365Y-143427000D01*
X103136635Y-143427000D01*
X103025451Y-143404884D01*
X102914266Y-143382768D01*
X102704797Y-143296003D01*
X102516280Y-143170040D01*
X102355960Y-143009720D01*
X102229997Y-142821203D01*
X102143232Y-142611734D01*
X102099000Y-142389364D01*
X102099000Y-142162636D01*
X102143232Y-141940266D01*
X102229997Y-141730797D01*
X102355960Y-141542280D01*
X102516280Y-141381960D01*
X102704797Y-141255997D01*
X102914266Y-141169232D01*
X103025451Y-141147116D01*
X103136635Y-141125000D01*
X103363365Y-141125000D01*
X103474549Y-141147116D01*
X103474549Y-141147116D01*
G37*
G36*
X108516823Y-140385313D02*
G01*
X108677242Y-140433976D01*
X108809906Y-140504886D01*
X108825078Y-140512996D01*
X108954659Y-140619341D01*
X109061004Y-140748922D01*
X109061005Y-140748924D01*
X109140024Y-140896758D01*
X109188687Y-141057177D01*
X109205117Y-141224000D01*
X109188687Y-141390823D01*
X109140024Y-141551242D01*
X109097384Y-141631015D01*
X109061004Y-141699078D01*
X108954659Y-141828659D01*
X108825078Y-141935004D01*
X108825076Y-141935005D01*
X108677242Y-142014024D01*
X108516823Y-142062687D01*
X108391804Y-142075000D01*
X107508196Y-142075000D01*
X107383177Y-142062687D01*
X107222758Y-142014024D01*
X107074924Y-141935005D01*
X107074922Y-141935004D01*
X106945341Y-141828659D01*
X106838996Y-141699078D01*
X106802616Y-141631015D01*
X106759976Y-141551242D01*
X106711313Y-141390823D01*
X106694883Y-141224000D01*
X106711313Y-141057177D01*
X106759976Y-140896758D01*
X106838995Y-140748924D01*
X106838996Y-140748922D01*
X106945341Y-140619341D01*
X107074922Y-140512996D01*
X107090094Y-140504886D01*
X107222758Y-140433976D01*
X107383177Y-140385313D01*
X107508196Y-140373000D01*
X108391804Y-140373000D01*
X108516823Y-140385313D01*
X108516823Y-140385313D01*
G37*
G36*
X116136823Y-140385313D02*
G01*
X116297242Y-140433976D01*
X116429906Y-140504886D01*
X116445078Y-140512996D01*
X116574659Y-140619341D01*
X116681004Y-140748922D01*
X116681005Y-140748924D01*
X116760024Y-140896758D01*
X116808687Y-141057177D01*
X116825117Y-141224000D01*
X116808687Y-141390823D01*
X116760024Y-141551242D01*
X116717384Y-141631015D01*
X116681004Y-141699078D01*
X116574659Y-141828659D01*
X116445078Y-141935004D01*
X116445076Y-141935005D01*
X116297242Y-142014024D01*
X116136823Y-142062687D01*
X116011804Y-142075000D01*
X115128196Y-142075000D01*
X115003177Y-142062687D01*
X114842758Y-142014024D01*
X114694924Y-141935005D01*
X114694922Y-141935004D01*
X114565341Y-141828659D01*
X114458996Y-141699078D01*
X114422616Y-141631015D01*
X114379976Y-141551242D01*
X114331313Y-141390823D01*
X114314883Y-141224000D01*
X114331313Y-141057177D01*
X114379976Y-140896758D01*
X114458995Y-140748924D01*
X114458996Y-140748922D01*
X114565341Y-140619341D01*
X114694922Y-140512996D01*
X114710094Y-140504886D01*
X114842758Y-140433976D01*
X115003177Y-140385313D01*
X115128196Y-140373000D01*
X116011804Y-140373000D01*
X116136823Y-140385313D01*
X116136823Y-140385313D01*
G37*
G36*
X121406228Y-140151703D02*
G01*
X121561100Y-140215853D01*
X121700481Y-140308985D01*
X121819015Y-140427519D01*
X121912147Y-140566900D01*
X121976297Y-140721772D01*
X122009000Y-140886184D01*
X122009000Y-141053816D01*
X121976297Y-141218228D01*
X121912147Y-141373100D01*
X121819015Y-141512481D01*
X121700481Y-141631015D01*
X121561100Y-141724147D01*
X121406228Y-141788297D01*
X121241816Y-141821000D01*
X121074184Y-141821000D01*
X120909772Y-141788297D01*
X120754900Y-141724147D01*
X120615519Y-141631015D01*
X120496985Y-141512481D01*
X120403853Y-141373100D01*
X120339703Y-141218228D01*
X120307000Y-141053816D01*
X120307000Y-140886184D01*
X120339703Y-140721772D01*
X120403853Y-140566900D01*
X120496985Y-140427519D01*
X120615519Y-140308985D01*
X120754900Y-140215853D01*
X120909772Y-140151703D01*
X121074184Y-140119000D01*
X121241816Y-140119000D01*
X121406228Y-140151703D01*
X121406228Y-140151703D01*
G37*
G36*
X116136823Y-137845313D02*
G01*
X116297242Y-137893976D01*
X116338874Y-137916229D01*
X116445078Y-137972996D01*
X116574659Y-138079341D01*
X116681004Y-138208922D01*
X116681005Y-138208924D01*
X116760024Y-138356758D01*
X116808687Y-138517177D01*
X116825117Y-138684000D01*
X116808687Y-138850823D01*
X116760024Y-139011242D01*
X116689114Y-139143906D01*
X116681004Y-139159078D01*
X116574659Y-139288659D01*
X116445078Y-139395004D01*
X116445076Y-139395005D01*
X116297242Y-139474024D01*
X116136823Y-139522687D01*
X116011804Y-139535000D01*
X115128196Y-139535000D01*
X115003177Y-139522687D01*
X114842758Y-139474024D01*
X114694924Y-139395005D01*
X114694922Y-139395004D01*
X114565341Y-139288659D01*
X114458996Y-139159078D01*
X114450886Y-139143906D01*
X114379976Y-139011242D01*
X114331313Y-138850823D01*
X114314883Y-138684000D01*
X114331313Y-138517177D01*
X114379976Y-138356758D01*
X114458995Y-138208924D01*
X114458996Y-138208922D01*
X114565341Y-138079341D01*
X114694922Y-137972996D01*
X114801126Y-137916229D01*
X114842758Y-137893976D01*
X115003177Y-137845313D01*
X115128196Y-137833000D01*
X116011804Y-137833000D01*
X116136823Y-137845313D01*
X116136823Y-137845313D01*
G37*
G36*
X108516823Y-137845313D02*
G01*
X108677242Y-137893976D01*
X108718874Y-137916229D01*
X108825078Y-137972996D01*
X108954659Y-138079341D01*
X109061004Y-138208922D01*
X109061005Y-138208924D01*
X109140024Y-138356758D01*
X109188687Y-138517177D01*
X109205117Y-138684000D01*
X109188687Y-138850823D01*
X109140024Y-139011242D01*
X109069114Y-139143906D01*
X109061004Y-139159078D01*
X108954659Y-139288659D01*
X108825078Y-139395004D01*
X108825076Y-139395005D01*
X108677242Y-139474024D01*
X108516823Y-139522687D01*
X108391804Y-139535000D01*
X107508196Y-139535000D01*
X107383177Y-139522687D01*
X107222758Y-139474024D01*
X107074924Y-139395005D01*
X107074922Y-139395004D01*
X106945341Y-139288659D01*
X106838996Y-139159078D01*
X106830886Y-139143906D01*
X106759976Y-139011242D01*
X106711313Y-138850823D01*
X106694883Y-138684000D01*
X106711313Y-138517177D01*
X106759976Y-138356758D01*
X106838995Y-138208924D01*
X106838996Y-138208922D01*
X106945341Y-138079341D01*
X107074922Y-137972996D01*
X107181126Y-137916229D01*
X107222758Y-137893976D01*
X107383177Y-137845313D01*
X107508196Y-137833000D01*
X108391804Y-137833000D01*
X108516823Y-137845313D01*
X108516823Y-137845313D01*
G37*
G36*
X78480228Y-137103703D02*
G01*
X78635100Y-137167853D01*
X78774481Y-137260985D01*
X78893015Y-137379519D01*
X78986147Y-137518900D01*
X79050297Y-137673772D01*
X79083000Y-137838184D01*
X79083000Y-138005816D01*
X79050297Y-138170228D01*
X78986147Y-138325100D01*
X78893015Y-138464481D01*
X78774481Y-138583015D01*
X78635100Y-138676147D01*
X78480228Y-138740297D01*
X78315816Y-138773000D01*
X78148184Y-138773000D01*
X77983772Y-138740297D01*
X77828900Y-138676147D01*
X77689519Y-138583015D01*
X77570985Y-138464481D01*
X77477853Y-138325100D01*
X77413703Y-138170228D01*
X77381000Y-138005816D01*
X77381000Y-137838184D01*
X77413703Y-137673772D01*
X77477853Y-137518900D01*
X77570985Y-137379519D01*
X77689519Y-137260985D01*
X77828900Y-137167853D01*
X77983772Y-137103703D01*
X78148184Y-137071000D01*
X78315816Y-137071000D01*
X78480228Y-137103703D01*
X78480228Y-137103703D01*
G37*
G36*
X88640228Y-137103703D02*
G01*
X88795100Y-137167853D01*
X88934481Y-137260985D01*
X89053015Y-137379519D01*
X89146147Y-137518900D01*
X89210297Y-137673772D01*
X89243000Y-137838184D01*
X89243000Y-138005816D01*
X89210297Y-138170228D01*
X89146147Y-138325100D01*
X89053015Y-138464481D01*
X88934481Y-138583015D01*
X88795100Y-138676147D01*
X88640228Y-138740297D01*
X88475816Y-138773000D01*
X88308184Y-138773000D01*
X88143772Y-138740297D01*
X87988900Y-138676147D01*
X87849519Y-138583015D01*
X87730985Y-138464481D01*
X87637853Y-138325100D01*
X87573703Y-138170228D01*
X87541000Y-138005816D01*
X87541000Y-137838184D01*
X87573703Y-137673772D01*
X87637853Y-137518900D01*
X87730985Y-137379519D01*
X87849519Y-137260985D01*
X87988900Y-137167853D01*
X88143772Y-137103703D01*
X88308184Y-137071000D01*
X88475816Y-137071000D01*
X88640228Y-137103703D01*
X88640228Y-137103703D01*
G37*
G36*
X96260228Y-137103703D02*
G01*
X96415100Y-137167853D01*
X96554481Y-137260985D01*
X96673015Y-137379519D01*
X96766147Y-137518900D01*
X96830297Y-137673772D01*
X96863000Y-137838184D01*
X96863000Y-138005816D01*
X96830297Y-138170228D01*
X96766147Y-138325100D01*
X96673015Y-138464481D01*
X96554481Y-138583015D01*
X96415100Y-138676147D01*
X96260228Y-138740297D01*
X96095816Y-138773000D01*
X95928184Y-138773000D01*
X95763772Y-138740297D01*
X95608900Y-138676147D01*
X95469519Y-138583015D01*
X95350985Y-138464481D01*
X95257853Y-138325100D01*
X95193703Y-138170228D01*
X95161000Y-138005816D01*
X95161000Y-137838184D01*
X95193703Y-137673772D01*
X95257853Y-137518900D01*
X95350985Y-137379519D01*
X95469519Y-137260985D01*
X95608900Y-137167853D01*
X95763772Y-137103703D01*
X95928184Y-137071000D01*
X96095816Y-137071000D01*
X96260228Y-137103703D01*
X96260228Y-137103703D01*
G37*
G36*
X86100228Y-137103703D02*
G01*
X86255100Y-137167853D01*
X86394481Y-137260985D01*
X86513015Y-137379519D01*
X86606147Y-137518900D01*
X86670297Y-137673772D01*
X86703000Y-137838184D01*
X86703000Y-138005816D01*
X86670297Y-138170228D01*
X86606147Y-138325100D01*
X86513015Y-138464481D01*
X86394481Y-138583015D01*
X86255100Y-138676147D01*
X86100228Y-138740297D01*
X85935816Y-138773000D01*
X85768184Y-138773000D01*
X85603772Y-138740297D01*
X85448900Y-138676147D01*
X85309519Y-138583015D01*
X85190985Y-138464481D01*
X85097853Y-138325100D01*
X85033703Y-138170228D01*
X85001000Y-138005816D01*
X85001000Y-137838184D01*
X85033703Y-137673772D01*
X85097853Y-137518900D01*
X85190985Y-137379519D01*
X85309519Y-137260985D01*
X85448900Y-137167853D01*
X85603772Y-137103703D01*
X85768184Y-137071000D01*
X85935816Y-137071000D01*
X86100228Y-137103703D01*
X86100228Y-137103703D01*
G37*
G36*
X98800228Y-136849703D02*
G01*
X98955100Y-136913853D01*
X99094481Y-137006985D01*
X99213015Y-137125519D01*
X99306147Y-137264900D01*
X99370297Y-137419772D01*
X99403000Y-137584184D01*
X99403000Y-137751816D01*
X99370297Y-137916228D01*
X99306147Y-138071100D01*
X99213015Y-138210481D01*
X99094481Y-138329015D01*
X98955100Y-138422147D01*
X98800228Y-138486297D01*
X98635816Y-138519000D01*
X98468184Y-138519000D01*
X98303772Y-138486297D01*
X98148900Y-138422147D01*
X98009519Y-138329015D01*
X97890985Y-138210481D01*
X97797853Y-138071100D01*
X97733703Y-137916228D01*
X97701000Y-137751816D01*
X97701000Y-137584184D01*
X97733703Y-137419772D01*
X97797853Y-137264900D01*
X97890985Y-137125519D01*
X98009519Y-137006985D01*
X98148900Y-136913853D01*
X98303772Y-136849703D01*
X98468184Y-136817000D01*
X98635816Y-136817000D01*
X98800228Y-136849703D01*
X98800228Y-136849703D01*
G37*
G36*
X108516823Y-135305313D02*
G01*
X108677242Y-135353976D01*
X108809906Y-135424886D01*
X108825078Y-135432996D01*
X108954659Y-135539341D01*
X109061004Y-135668922D01*
X109061005Y-135668924D01*
X109140024Y-135816758D01*
X109188687Y-135977177D01*
X109205117Y-136144000D01*
X109188687Y-136310823D01*
X109140024Y-136471242D01*
X109069114Y-136603906D01*
X109061004Y-136619078D01*
X108954659Y-136748659D01*
X108825078Y-136855004D01*
X108825076Y-136855005D01*
X108677242Y-136934024D01*
X108516823Y-136982687D01*
X108391804Y-136995000D01*
X107508196Y-136995000D01*
X107383177Y-136982687D01*
X107222758Y-136934024D01*
X107074924Y-136855005D01*
X107074922Y-136855004D01*
X106945341Y-136748659D01*
X106838996Y-136619078D01*
X106830886Y-136603906D01*
X106759976Y-136471242D01*
X106711313Y-136310823D01*
X106694883Y-136144000D01*
X106711313Y-135977177D01*
X106759976Y-135816758D01*
X106838995Y-135668924D01*
X106838996Y-135668922D01*
X106945341Y-135539341D01*
X107074922Y-135432996D01*
X107090094Y-135424886D01*
X107222758Y-135353976D01*
X107383177Y-135305313D01*
X107508196Y-135293000D01*
X108391804Y-135293000D01*
X108516823Y-135305313D01*
X108516823Y-135305313D01*
G37*
G36*
X116136823Y-135305313D02*
G01*
X116297242Y-135353976D01*
X116429906Y-135424886D01*
X116445078Y-135432996D01*
X116574659Y-135539341D01*
X116681004Y-135668922D01*
X116681005Y-135668924D01*
X116760024Y-135816758D01*
X116808687Y-135977177D01*
X116825117Y-136144000D01*
X116808687Y-136310823D01*
X116760024Y-136471242D01*
X116689114Y-136603906D01*
X116681004Y-136619078D01*
X116574659Y-136748659D01*
X116445078Y-136855004D01*
X116445076Y-136855005D01*
X116297242Y-136934024D01*
X116136823Y-136982687D01*
X116011804Y-136995000D01*
X115128196Y-136995000D01*
X115003177Y-136982687D01*
X114842758Y-136934024D01*
X114694924Y-136855005D01*
X114694922Y-136855004D01*
X114565341Y-136748659D01*
X114458996Y-136619078D01*
X114450886Y-136603906D01*
X114379976Y-136471242D01*
X114331313Y-136310823D01*
X114314883Y-136144000D01*
X114331313Y-135977177D01*
X114379976Y-135816758D01*
X114458995Y-135668924D01*
X114458996Y-135668922D01*
X114565341Y-135539341D01*
X114694922Y-135432996D01*
X114710094Y-135424886D01*
X114842758Y-135353976D01*
X115003177Y-135305313D01*
X115128196Y-135293000D01*
X116011804Y-135293000D01*
X116136823Y-135305313D01*
X116136823Y-135305313D01*
G37*
G36*
X116136823Y-132765313D02*
G01*
X116267380Y-132804917D01*
X116282461Y-132809492D01*
X116297242Y-132813976D01*
X116429906Y-132884886D01*
X116445078Y-132892996D01*
X116574659Y-132999341D01*
X116681004Y-133128922D01*
X116681005Y-133128924D01*
X116760024Y-133276758D01*
X116808687Y-133437177D01*
X116825117Y-133604000D01*
X116808687Y-133770823D01*
X116760024Y-133931242D01*
X116717384Y-134011015D01*
X116681004Y-134079078D01*
X116574659Y-134208659D01*
X116445078Y-134315004D01*
X116445076Y-134315005D01*
X116297242Y-134394024D01*
X116136823Y-134442687D01*
X116011804Y-134455000D01*
X115128196Y-134455000D01*
X115003177Y-134442687D01*
X114842758Y-134394024D01*
X114694924Y-134315005D01*
X114694922Y-134315004D01*
X114565341Y-134208659D01*
X114458996Y-134079078D01*
X114422616Y-134011015D01*
X114379976Y-133931242D01*
X114331313Y-133770823D01*
X114314883Y-133604000D01*
X114331313Y-133437177D01*
X114379976Y-133276758D01*
X114458995Y-133128924D01*
X114458996Y-133128922D01*
X114565341Y-132999341D01*
X114694922Y-132892996D01*
X114710094Y-132884886D01*
X114842758Y-132813976D01*
X114857540Y-132809492D01*
X114872620Y-132804917D01*
X115003177Y-132765313D01*
X115128196Y-132753000D01*
X116011804Y-132753000D01*
X116136823Y-132765313D01*
X116136823Y-132765313D01*
G37*
G36*
X108516823Y-132765313D02*
G01*
X108647380Y-132804917D01*
X108662461Y-132809492D01*
X108677242Y-132813976D01*
X108809906Y-132884886D01*
X108825078Y-132892996D01*
X108954659Y-132999341D01*
X109061004Y-133128922D01*
X109061005Y-133128924D01*
X109140024Y-133276758D01*
X109188687Y-133437177D01*
X109205117Y-133604000D01*
X109188687Y-133770823D01*
X109140024Y-133931242D01*
X109097384Y-134011015D01*
X109061004Y-134079078D01*
X108954659Y-134208659D01*
X108825078Y-134315004D01*
X108825076Y-134315005D01*
X108677242Y-134394024D01*
X108516823Y-134442687D01*
X108391804Y-134455000D01*
X107508196Y-134455000D01*
X107383177Y-134442687D01*
X107222758Y-134394024D01*
X107074924Y-134315005D01*
X107074922Y-134315004D01*
X106945341Y-134208659D01*
X106838996Y-134079078D01*
X106802616Y-134011015D01*
X106759976Y-133931242D01*
X106711313Y-133770823D01*
X106694883Y-133604000D01*
X106711313Y-133437177D01*
X106759976Y-133276758D01*
X106838995Y-133128924D01*
X106838996Y-133128922D01*
X106945341Y-132999341D01*
X107074922Y-132892996D01*
X107090094Y-132884886D01*
X107222758Y-132813976D01*
X107237540Y-132809492D01*
X107252620Y-132804917D01*
X107383177Y-132765313D01*
X107508196Y-132753000D01*
X108391804Y-132753000D01*
X108516823Y-132765313D01*
X108516823Y-132765313D01*
G37*
G36*
X121406228Y-132531703D02*
G01*
X121561100Y-132595853D01*
X121700481Y-132688985D01*
X121819015Y-132807519D01*
X121912147Y-132946900D01*
X121976297Y-133101772D01*
X122009000Y-133266184D01*
X122009000Y-133433816D01*
X121976297Y-133598228D01*
X121912147Y-133753100D01*
X121819015Y-133892481D01*
X121700481Y-134011015D01*
X121561100Y-134104147D01*
X121406228Y-134168297D01*
X121241816Y-134201000D01*
X121074184Y-134201000D01*
X120909772Y-134168297D01*
X120754900Y-134104147D01*
X120615519Y-134011015D01*
X120496985Y-133892481D01*
X120403853Y-133753100D01*
X120339703Y-133598228D01*
X120307000Y-133433816D01*
X120307000Y-133266184D01*
X120339703Y-133101772D01*
X120403853Y-132946900D01*
X120496985Y-132807519D01*
X120615519Y-132688985D01*
X120754900Y-132595853D01*
X120909772Y-132531703D01*
X121074184Y-132499000D01*
X121241816Y-132499000D01*
X121406228Y-132531703D01*
X121406228Y-132531703D01*
G37*
G36*
X89745916Y-129480334D02*
G01*
X89854492Y-129513271D01*
X89854495Y-129513272D01*
X89890601Y-129532571D01*
X89954557Y-129566756D01*
X90042264Y-129638736D01*
X90114244Y-129726443D01*
X90148429Y-129790399D01*
X90167728Y-129826505D01*
X90167729Y-129826508D01*
X90200666Y-129935084D01*
X90211787Y-130048000D01*
X90200666Y-130160916D01*
X90167729Y-130269492D01*
X90167728Y-130269495D01*
X90153439Y-130296228D01*
X90114244Y-130369557D01*
X90042264Y-130457264D01*
X89954557Y-130529244D01*
X89873141Y-130572761D01*
X89852766Y-130586375D01*
X89835439Y-130603702D01*
X89821826Y-130624076D01*
X89812448Y-130646715D01*
X89807668Y-130670748D01*
X89807668Y-130695252D01*
X89812448Y-130719285D01*
X89821826Y-130741924D01*
X89835440Y-130762299D01*
X89852767Y-130779626D01*
X89873141Y-130793239D01*
X89954557Y-130836756D01*
X90042264Y-130908736D01*
X90114244Y-130996443D01*
X90148429Y-131060399D01*
X90167728Y-131096505D01*
X90167729Y-131096508D01*
X90200666Y-131205084D01*
X90211787Y-131318000D01*
X90200666Y-131430916D01*
X90167729Y-131539492D01*
X90167728Y-131539495D01*
X90148429Y-131575601D01*
X90114244Y-131639557D01*
X90042264Y-131727264D01*
X89954557Y-131799244D01*
X89873141Y-131842761D01*
X89852766Y-131856375D01*
X89835439Y-131873702D01*
X89821826Y-131894076D01*
X89812448Y-131916715D01*
X89807668Y-131940748D01*
X89807668Y-131965252D01*
X89812448Y-131989285D01*
X89821826Y-132011924D01*
X89835440Y-132032299D01*
X89852767Y-132049626D01*
X89873141Y-132063239D01*
X89954557Y-132106756D01*
X90042264Y-132178736D01*
X90114244Y-132266443D01*
X90148429Y-132330399D01*
X90167728Y-132366505D01*
X90167729Y-132366508D01*
X90200666Y-132475084D01*
X90211787Y-132588000D01*
X90200666Y-132700916D01*
X90168327Y-132807520D01*
X90167728Y-132809495D01*
X90148429Y-132845601D01*
X90114244Y-132909557D01*
X90042264Y-132997264D01*
X89954557Y-133069244D01*
X89893702Y-133101771D01*
X89854495Y-133122728D01*
X89854492Y-133122729D01*
X89745916Y-133155666D01*
X89661298Y-133164000D01*
X89154702Y-133164000D01*
X89070084Y-133155666D01*
X88961508Y-133122729D01*
X88961505Y-133122728D01*
X88922298Y-133101771D01*
X88861443Y-133069244D01*
X88773736Y-132997264D01*
X88701756Y-132909557D01*
X88667571Y-132845601D01*
X88648272Y-132809495D01*
X88647673Y-132807520D01*
X88615334Y-132700916D01*
X88604213Y-132588000D01*
X88615334Y-132475084D01*
X88648271Y-132366508D01*
X88648272Y-132366505D01*
X88667571Y-132330399D01*
X88701756Y-132266443D01*
X88773736Y-132178736D01*
X88861443Y-132106756D01*
X88942859Y-132063239D01*
X88963234Y-132049625D01*
X88980561Y-132032298D01*
X88994174Y-132011924D01*
X89003552Y-131989285D01*
X89008332Y-131965252D01*
X89008332Y-131940748D01*
X89003552Y-131916715D01*
X88994174Y-131894076D01*
X88980560Y-131873701D01*
X88963233Y-131856374D01*
X88942859Y-131842761D01*
X88861443Y-131799244D01*
X88773736Y-131727264D01*
X88701756Y-131639557D01*
X88667571Y-131575601D01*
X88648272Y-131539495D01*
X88648271Y-131539492D01*
X88615334Y-131430916D01*
X88604213Y-131318000D01*
X88615334Y-131205084D01*
X88648271Y-131096508D01*
X88648272Y-131096505D01*
X88667571Y-131060399D01*
X88701756Y-130996443D01*
X88773736Y-130908736D01*
X88861443Y-130836756D01*
X88942859Y-130793239D01*
X88963234Y-130779625D01*
X88980561Y-130762298D01*
X88994174Y-130741924D01*
X89003552Y-130719285D01*
X89008332Y-130695252D01*
X89008332Y-130670748D01*
X89003552Y-130646715D01*
X88994174Y-130624076D01*
X88980560Y-130603701D01*
X88963233Y-130586374D01*
X88942859Y-130572761D01*
X88861443Y-130529244D01*
X88773736Y-130457264D01*
X88701756Y-130369557D01*
X88662561Y-130296228D01*
X88648272Y-130269495D01*
X88648271Y-130269492D01*
X88615334Y-130160916D01*
X88604213Y-130048000D01*
X88615334Y-129935084D01*
X88648271Y-129826508D01*
X88648272Y-129826505D01*
X88667571Y-129790399D01*
X88701756Y-129726443D01*
X88773736Y-129638736D01*
X88861443Y-129566756D01*
X88925399Y-129532571D01*
X88961505Y-129513272D01*
X88961508Y-129513271D01*
X89070084Y-129480334D01*
X89154702Y-129472000D01*
X89661298Y-129472000D01*
X89745916Y-129480334D01*
X89745916Y-129480334D01*
G37*
G36*
X116136823Y-130225313D02*
G01*
X116267380Y-130264917D01*
X116282461Y-130269492D01*
X116297242Y-130273976D01*
X116429906Y-130344886D01*
X116445078Y-130352996D01*
X116574659Y-130459341D01*
X116681004Y-130588922D01*
X116681005Y-130588924D01*
X116760024Y-130736758D01*
X116808687Y-130897177D01*
X116825117Y-131064000D01*
X116808687Y-131230823D01*
X116760024Y-131391242D01*
X116689114Y-131523906D01*
X116681004Y-131539078D01*
X116574659Y-131668659D01*
X116445078Y-131775004D01*
X116445076Y-131775005D01*
X116297242Y-131854024D01*
X116136823Y-131902687D01*
X116011804Y-131915000D01*
X115128196Y-131915000D01*
X115003177Y-131902687D01*
X114842758Y-131854024D01*
X114694924Y-131775005D01*
X114694922Y-131775004D01*
X114565341Y-131668659D01*
X114458996Y-131539078D01*
X114450886Y-131523906D01*
X114379976Y-131391242D01*
X114331313Y-131230823D01*
X114314883Y-131064000D01*
X114331313Y-130897177D01*
X114379976Y-130736758D01*
X114458995Y-130588924D01*
X114458996Y-130588922D01*
X114565341Y-130459341D01*
X114694922Y-130352996D01*
X114710094Y-130344886D01*
X114842758Y-130273976D01*
X114857540Y-130269492D01*
X114872620Y-130264917D01*
X115003177Y-130225313D01*
X115128196Y-130213000D01*
X116011804Y-130213000D01*
X116136823Y-130225313D01*
X116136823Y-130225313D01*
G37*
G36*
X108516823Y-130225313D02*
G01*
X108647380Y-130264917D01*
X108662461Y-130269492D01*
X108677242Y-130273976D01*
X108809906Y-130344886D01*
X108825078Y-130352996D01*
X108954659Y-130459341D01*
X109061004Y-130588922D01*
X109061005Y-130588924D01*
X109140024Y-130736758D01*
X109188687Y-130897177D01*
X109205117Y-131064000D01*
X109188687Y-131230823D01*
X109140024Y-131391242D01*
X109069114Y-131523906D01*
X109061004Y-131539078D01*
X108954659Y-131668659D01*
X108825078Y-131775004D01*
X108825076Y-131775005D01*
X108677242Y-131854024D01*
X108516823Y-131902687D01*
X108391804Y-131915000D01*
X107508196Y-131915000D01*
X107383177Y-131902687D01*
X107222758Y-131854024D01*
X107074924Y-131775005D01*
X107074922Y-131775004D01*
X106945341Y-131668659D01*
X106838996Y-131539078D01*
X106830886Y-131523906D01*
X106759976Y-131391242D01*
X106711313Y-131230823D01*
X106694883Y-131064000D01*
X106711313Y-130897177D01*
X106759976Y-130736758D01*
X106838995Y-130588924D01*
X106838996Y-130588922D01*
X106945341Y-130459341D01*
X107074922Y-130352996D01*
X107090094Y-130344886D01*
X107222758Y-130273976D01*
X107237540Y-130269492D01*
X107252620Y-130264917D01*
X107383177Y-130225313D01*
X107508196Y-130213000D01*
X108391804Y-130213000D01*
X108516823Y-130225313D01*
X108516823Y-130225313D01*
G37*
G36*
X81782228Y-129737703D02*
G01*
X81937100Y-129801853D01*
X82076481Y-129894985D01*
X82195015Y-130013519D01*
X82288147Y-130152900D01*
X82352297Y-130307772D01*
X82385000Y-130472184D01*
X82385000Y-130639816D01*
X82352297Y-130804228D01*
X82288147Y-130959100D01*
X82195015Y-131098481D01*
X82076481Y-131217015D01*
X81937100Y-131310147D01*
X81782228Y-131374297D01*
X81617816Y-131407000D01*
X81450184Y-131407000D01*
X81285772Y-131374297D01*
X81130900Y-131310147D01*
X80991519Y-131217015D01*
X80872985Y-131098481D01*
X80779853Y-130959100D01*
X80715703Y-130804228D01*
X80683000Y-130639816D01*
X80683000Y-130472184D01*
X80715703Y-130307772D01*
X80779853Y-130152900D01*
X80872985Y-130013519D01*
X80991519Y-129894985D01*
X81130900Y-129801853D01*
X81285772Y-129737703D01*
X81450184Y-129705000D01*
X81617816Y-129705000D01*
X81782228Y-129737703D01*
X81782228Y-129737703D01*
G37*
G36*
X98800228Y-129229703D02*
G01*
X98955100Y-129293853D01*
X99094481Y-129386985D01*
X99213015Y-129505519D01*
X99306147Y-129644900D01*
X99370297Y-129799772D01*
X99403000Y-129964184D01*
X99403000Y-130131816D01*
X99370297Y-130296228D01*
X99306147Y-130451100D01*
X99213015Y-130590481D01*
X99094481Y-130709015D01*
X98955100Y-130802147D01*
X98800228Y-130866297D01*
X98635816Y-130899000D01*
X98468184Y-130899000D01*
X98303772Y-130866297D01*
X98148900Y-130802147D01*
X98009519Y-130709015D01*
X97890985Y-130590481D01*
X97797853Y-130451100D01*
X97733703Y-130296228D01*
X97701000Y-130131816D01*
X97701000Y-129964184D01*
X97733703Y-129799772D01*
X97797853Y-129644900D01*
X97890985Y-129505519D01*
X98009519Y-129386985D01*
X98148900Y-129293853D01*
X98303772Y-129229703D01*
X98468184Y-129197000D01*
X98635816Y-129197000D01*
X98800228Y-129229703D01*
X98800228Y-129229703D01*
G37*
G36*
X121406228Y-129151703D02*
G01*
X121561100Y-129215853D01*
X121700481Y-129308985D01*
X121819015Y-129427519D01*
X121912147Y-129566900D01*
X121976297Y-129721772D01*
X122009000Y-129886184D01*
X122009000Y-130053816D01*
X121976297Y-130218228D01*
X121912147Y-130373100D01*
X121819015Y-130512481D01*
X121700481Y-130631015D01*
X121561100Y-130724147D01*
X121406228Y-130788297D01*
X121241816Y-130821000D01*
X121074184Y-130821000D01*
X120909772Y-130788297D01*
X120754900Y-130724147D01*
X120615519Y-130631015D01*
X120496985Y-130512481D01*
X120403853Y-130373100D01*
X120339703Y-130218228D01*
X120307000Y-130053816D01*
X120307000Y-129886184D01*
X120339703Y-129721772D01*
X120403853Y-129566900D01*
X120496985Y-129427519D01*
X120615519Y-129308985D01*
X120754900Y-129215853D01*
X120909772Y-129151703D01*
X121074184Y-129119000D01*
X121241816Y-129119000D01*
X121406228Y-129151703D01*
X121406228Y-129151703D01*
G37*
G36*
X116136823Y-127685313D02*
G01*
X116297242Y-127733976D01*
X116429906Y-127804886D01*
X116445078Y-127812996D01*
X116574659Y-127919341D01*
X116681004Y-128048922D01*
X116681005Y-128048924D01*
X116760024Y-128196758D01*
X116808687Y-128357177D01*
X116825117Y-128524000D01*
X116808687Y-128690823D01*
X116760024Y-128851242D01*
X116689114Y-128983906D01*
X116681004Y-128999078D01*
X116574659Y-129128659D01*
X116445078Y-129235004D01*
X116445076Y-129235005D01*
X116297242Y-129314024D01*
X116136823Y-129362687D01*
X116011804Y-129375000D01*
X115128196Y-129375000D01*
X115003177Y-129362687D01*
X114842758Y-129314024D01*
X114694924Y-129235005D01*
X114694922Y-129235004D01*
X114565341Y-129128659D01*
X114458996Y-128999078D01*
X114450886Y-128983906D01*
X114379976Y-128851242D01*
X114331313Y-128690823D01*
X114314883Y-128524000D01*
X114331313Y-128357177D01*
X114379976Y-128196758D01*
X114458995Y-128048924D01*
X114458996Y-128048922D01*
X114565341Y-127919341D01*
X114694922Y-127812996D01*
X114710094Y-127804886D01*
X114842758Y-127733976D01*
X115003177Y-127685313D01*
X115128196Y-127673000D01*
X116011804Y-127673000D01*
X116136823Y-127685313D01*
X116136823Y-127685313D01*
G37*
G36*
X108516823Y-127685313D02*
G01*
X108677242Y-127733976D01*
X108809906Y-127804886D01*
X108825078Y-127812996D01*
X108954659Y-127919341D01*
X109061004Y-128048922D01*
X109061005Y-128048924D01*
X109140024Y-128196758D01*
X109188687Y-128357177D01*
X109205117Y-128524000D01*
X109188687Y-128690823D01*
X109140024Y-128851242D01*
X109069114Y-128983906D01*
X109061004Y-128999078D01*
X108954659Y-129128659D01*
X108825078Y-129235004D01*
X108825076Y-129235005D01*
X108677242Y-129314024D01*
X108516823Y-129362687D01*
X108391804Y-129375000D01*
X107508196Y-129375000D01*
X107383177Y-129362687D01*
X107222758Y-129314024D01*
X107074924Y-129235005D01*
X107074922Y-129235004D01*
X106945341Y-129128659D01*
X106838996Y-128999078D01*
X106830886Y-128983906D01*
X106759976Y-128851242D01*
X106711313Y-128690823D01*
X106694883Y-128524000D01*
X106711313Y-128357177D01*
X106759976Y-128196758D01*
X106838995Y-128048924D01*
X106838996Y-128048922D01*
X106945341Y-127919341D01*
X107074922Y-127812996D01*
X107090094Y-127804886D01*
X107222758Y-127733976D01*
X107383177Y-127685313D01*
X107508196Y-127673000D01*
X108391804Y-127673000D01*
X108516823Y-127685313D01*
X108516823Y-127685313D01*
G37*
G36*
X93466228Y-125165703D02*
G01*
X93621100Y-125229853D01*
X93760481Y-125322985D01*
X93879015Y-125441519D01*
X93972147Y-125580900D01*
X94036297Y-125735772D01*
X94069000Y-125900184D01*
X94069000Y-126067816D01*
X94036297Y-126232228D01*
X93972147Y-126387100D01*
X93879015Y-126526481D01*
X93760481Y-126645015D01*
X93621100Y-126738147D01*
X93466228Y-126802297D01*
X93301816Y-126835000D01*
X93134184Y-126835000D01*
X92969772Y-126802297D01*
X92814900Y-126738147D01*
X92675519Y-126645015D01*
X92556985Y-126526481D01*
X92463853Y-126387100D01*
X92399703Y-126232228D01*
X92367000Y-126067816D01*
X92367000Y-125900184D01*
X92399703Y-125735772D01*
X92463853Y-125580900D01*
X92556985Y-125441519D01*
X92675519Y-125322985D01*
X92814900Y-125229853D01*
X92969772Y-125165703D01*
X93134184Y-125133000D01*
X93301816Y-125133000D01*
X93466228Y-125165703D01*
X93466228Y-125165703D01*
G37*
G36*
X116136823Y-125145313D02*
G01*
X116297242Y-125193976D01*
X116364361Y-125229852D01*
X116445078Y-125272996D01*
X116574659Y-125379341D01*
X116681004Y-125508922D01*
X116681005Y-125508924D01*
X116760024Y-125656758D01*
X116808687Y-125817177D01*
X116825117Y-125984000D01*
X116808687Y-126150823D01*
X116760024Y-126311242D01*
X116719477Y-126387100D01*
X116681004Y-126459078D01*
X116574659Y-126588659D01*
X116445078Y-126695004D01*
X116445076Y-126695005D01*
X116297242Y-126774024D01*
X116136823Y-126822687D01*
X116011804Y-126835000D01*
X115128196Y-126835000D01*
X115003177Y-126822687D01*
X114842758Y-126774024D01*
X114694924Y-126695005D01*
X114694922Y-126695004D01*
X114565341Y-126588659D01*
X114458996Y-126459078D01*
X114420523Y-126387100D01*
X114379976Y-126311242D01*
X114331313Y-126150823D01*
X114314883Y-125984000D01*
X114331313Y-125817177D01*
X114379976Y-125656758D01*
X114458995Y-125508924D01*
X114458996Y-125508922D01*
X114565341Y-125379341D01*
X114694922Y-125272996D01*
X114775639Y-125229852D01*
X114842758Y-125193976D01*
X115003177Y-125145313D01*
X115128196Y-125133000D01*
X116011804Y-125133000D01*
X116136823Y-125145313D01*
X116136823Y-125145313D01*
G37*
G36*
X101300228Y-125165703D02*
G01*
X101455100Y-125229853D01*
X101594481Y-125322985D01*
X101713015Y-125441519D01*
X101806147Y-125580900D01*
X101870297Y-125735772D01*
X101903000Y-125900184D01*
X101903000Y-126067816D01*
X101870297Y-126232228D01*
X101806147Y-126387100D01*
X101713015Y-126526481D01*
X101594481Y-126645015D01*
X101455100Y-126738147D01*
X101300228Y-126802297D01*
X101135816Y-126835000D01*
X100968184Y-126835000D01*
X100803772Y-126802297D01*
X100648900Y-126738147D01*
X100509519Y-126645015D01*
X100390985Y-126526481D01*
X100297853Y-126387100D01*
X100233703Y-126232228D01*
X100201000Y-126067816D01*
X100201000Y-125900184D01*
X100233703Y-125735772D01*
X100297853Y-125580900D01*
X100390985Y-125441519D01*
X100509519Y-125322985D01*
X100648900Y-125229853D01*
X100803772Y-125165703D01*
X100968184Y-125133000D01*
X101135816Y-125133000D01*
X101300228Y-125165703D01*
X101300228Y-125165703D01*
G37*
G36*
X96300228Y-125165703D02*
G01*
X96455100Y-125229853D01*
X96594481Y-125322985D01*
X96713015Y-125441519D01*
X96806147Y-125580900D01*
X96870297Y-125735772D01*
X96903000Y-125900184D01*
X96903000Y-126067816D01*
X96870297Y-126232228D01*
X96806147Y-126387100D01*
X96713015Y-126526481D01*
X96594481Y-126645015D01*
X96455100Y-126738147D01*
X96300228Y-126802297D01*
X96135816Y-126835000D01*
X95968184Y-126835000D01*
X95803772Y-126802297D01*
X95648900Y-126738147D01*
X95509519Y-126645015D01*
X95390985Y-126526481D01*
X95297853Y-126387100D01*
X95233703Y-126232228D01*
X95201000Y-126067816D01*
X95201000Y-125900184D01*
X95233703Y-125735772D01*
X95297853Y-125580900D01*
X95390985Y-125441519D01*
X95509519Y-125322985D01*
X95648900Y-125229853D01*
X95803772Y-125165703D01*
X95968184Y-125133000D01*
X96135816Y-125133000D01*
X96300228Y-125165703D01*
X96300228Y-125165703D01*
G37*
G36*
X85846228Y-125165703D02*
G01*
X86001100Y-125229853D01*
X86140481Y-125322985D01*
X86259015Y-125441519D01*
X86352147Y-125580900D01*
X86416297Y-125735772D01*
X86449000Y-125900184D01*
X86449000Y-126067816D01*
X86416297Y-126232228D01*
X86352147Y-126387100D01*
X86259015Y-126526481D01*
X86140481Y-126645015D01*
X86001100Y-126738147D01*
X85846228Y-126802297D01*
X85681816Y-126835000D01*
X85514184Y-126835000D01*
X85349772Y-126802297D01*
X85194900Y-126738147D01*
X85055519Y-126645015D01*
X84936985Y-126526481D01*
X84843853Y-126387100D01*
X84779703Y-126232228D01*
X84747000Y-126067816D01*
X84747000Y-125900184D01*
X84779703Y-125735772D01*
X84843853Y-125580900D01*
X84936985Y-125441519D01*
X85055519Y-125322985D01*
X85194900Y-125229853D01*
X85349772Y-125165703D01*
X85514184Y-125133000D01*
X85681816Y-125133000D01*
X85846228Y-125165703D01*
X85846228Y-125165703D01*
G37*
G36*
X108516823Y-125145313D02*
G01*
X108677242Y-125193976D01*
X108744361Y-125229852D01*
X108825078Y-125272996D01*
X108954659Y-125379341D01*
X109061004Y-125508922D01*
X109061005Y-125508924D01*
X109140024Y-125656758D01*
X109188687Y-125817177D01*
X109205117Y-125984000D01*
X109188687Y-126150823D01*
X109140024Y-126311242D01*
X109099477Y-126387100D01*
X109061004Y-126459078D01*
X108954659Y-126588659D01*
X108825078Y-126695004D01*
X108825076Y-126695005D01*
X108677242Y-126774024D01*
X108516823Y-126822687D01*
X108391804Y-126835000D01*
X107508196Y-126835000D01*
X107383177Y-126822687D01*
X107222758Y-126774024D01*
X107074924Y-126695005D01*
X107074922Y-126695004D01*
X106945341Y-126588659D01*
X106838996Y-126459078D01*
X106800523Y-126387100D01*
X106759976Y-126311242D01*
X106711313Y-126150823D01*
X106694883Y-125984000D01*
X106711313Y-125817177D01*
X106759976Y-125656758D01*
X106838995Y-125508924D01*
X106838996Y-125508922D01*
X106945341Y-125379341D01*
X107074922Y-125272996D01*
X107155639Y-125229852D01*
X107222758Y-125193976D01*
X107383177Y-125145313D01*
X107508196Y-125133000D01*
X108391804Y-125133000D01*
X108516823Y-125145313D01*
X108516823Y-125145313D01*
G37*
G36*
X81782228Y-122117703D02*
G01*
X81937100Y-122181853D01*
X82076481Y-122274985D01*
X82195015Y-122393519D01*
X82288147Y-122532900D01*
X82352297Y-122687772D01*
X82385000Y-122852184D01*
X82385000Y-123019816D01*
X82352297Y-123184228D01*
X82288147Y-123339100D01*
X82195015Y-123478481D01*
X82076481Y-123597015D01*
X81937100Y-123690147D01*
X81782228Y-123754297D01*
X81617816Y-123787000D01*
X81450184Y-123787000D01*
X81285772Y-123754297D01*
X81130900Y-123690147D01*
X80991519Y-123597015D01*
X80872985Y-123478481D01*
X80779853Y-123339100D01*
X80715703Y-123184228D01*
X80683000Y-123019816D01*
X80683000Y-122852184D01*
X80715703Y-122687772D01*
X80779853Y-122532900D01*
X80872985Y-122393519D01*
X80991519Y-122274985D01*
X81130900Y-122181853D01*
X81285772Y-122117703D01*
X81450184Y-122085000D01*
X81617816Y-122085000D01*
X81782228Y-122117703D01*
X81782228Y-122117703D01*
G37*
G36*
X121406228Y-121531703D02*
G01*
X121561100Y-121595853D01*
X121700481Y-121688985D01*
X121819015Y-121807519D01*
X121912147Y-121946900D01*
X121976297Y-122101772D01*
X122009000Y-122266184D01*
X122009000Y-122433816D01*
X121976297Y-122598228D01*
X121912147Y-122753100D01*
X121819015Y-122892481D01*
X121700481Y-123011015D01*
X121561100Y-123104147D01*
X121406228Y-123168297D01*
X121241816Y-123201000D01*
X121074184Y-123201000D01*
X120909772Y-123168297D01*
X120754900Y-123104147D01*
X120615519Y-123011015D01*
X120496985Y-122892481D01*
X120403853Y-122753100D01*
X120339703Y-122598228D01*
X120307000Y-122433816D01*
X120307000Y-122266184D01*
X120339703Y-122101772D01*
X120403853Y-121946900D01*
X120496985Y-121807519D01*
X120615519Y-121688985D01*
X120754900Y-121595853D01*
X120909772Y-121531703D01*
X121074184Y-121499000D01*
X121241816Y-121499000D01*
X121406228Y-121531703D01*
X121406228Y-121531703D01*
G37*
G36*
X94400822Y-120427313D02*
G01*
X94561241Y-120475976D01*
X94709077Y-120554995D01*
X94838659Y-120661341D01*
X94945004Y-120790922D01*
X94945005Y-120790924D01*
X95024024Y-120938758D01*
X95072687Y-121099177D01*
X95085000Y-121224196D01*
X95085000Y-122107803D01*
X95072687Y-122232822D01*
X95024024Y-122393242D01*
X94953114Y-122525906D01*
X94945004Y-122541078D01*
X94838659Y-122670659D01*
X94709078Y-122777004D01*
X94709076Y-122777005D01*
X94561242Y-122856024D01*
X94400823Y-122904687D01*
X94234000Y-122921117D01*
X94067178Y-122904687D01*
X93906759Y-122856024D01*
X93758925Y-122777005D01*
X93758923Y-122777004D01*
X93629342Y-122670659D01*
X93522997Y-122541078D01*
X93514887Y-122525906D01*
X93443977Y-122393242D01*
X93395314Y-122232823D01*
X93383000Y-122107803D01*
X93383000Y-121224197D01*
X93395313Y-121099178D01*
X93443976Y-120938759D01*
X93522995Y-120790923D01*
X93629341Y-120661341D01*
X93758922Y-120554996D01*
X93774094Y-120546886D01*
X93906758Y-120475976D01*
X94067177Y-120427313D01*
X94234000Y-120410883D01*
X94400822Y-120427313D01*
X94400822Y-120427313D01*
G37*
G36*
X99480822Y-120427313D02*
G01*
X99641241Y-120475976D01*
X99789077Y-120554995D01*
X99918659Y-120661341D01*
X100025004Y-120790922D01*
X100025005Y-120790924D01*
X100104024Y-120938758D01*
X100152687Y-121099177D01*
X100165000Y-121224196D01*
X100165000Y-122107803D01*
X100152687Y-122232822D01*
X100104024Y-122393242D01*
X100033114Y-122525906D01*
X100025004Y-122541078D01*
X99918659Y-122670659D01*
X99789078Y-122777004D01*
X99789076Y-122777005D01*
X99641242Y-122856024D01*
X99480823Y-122904687D01*
X99314000Y-122921117D01*
X99147178Y-122904687D01*
X98986759Y-122856024D01*
X98838925Y-122777005D01*
X98838923Y-122777004D01*
X98709342Y-122670659D01*
X98602997Y-122541078D01*
X98594887Y-122525906D01*
X98523977Y-122393242D01*
X98475314Y-122232823D01*
X98463000Y-122107803D01*
X98463000Y-121224197D01*
X98475313Y-121099178D01*
X98523976Y-120938759D01*
X98602995Y-120790923D01*
X98709341Y-120661341D01*
X98838922Y-120554996D01*
X98854094Y-120546886D01*
X98986758Y-120475976D01*
X99147177Y-120427313D01*
X99314000Y-120410883D01*
X99480822Y-120427313D01*
X99480822Y-120427313D01*
G37*
G36*
X96940822Y-120427313D02*
G01*
X97101241Y-120475976D01*
X97249077Y-120554995D01*
X97378659Y-120661341D01*
X97485004Y-120790922D01*
X97485005Y-120790924D01*
X97564024Y-120938758D01*
X97612687Y-121099177D01*
X97625000Y-121224196D01*
X97625000Y-122107803D01*
X97612687Y-122232822D01*
X97564024Y-122393242D01*
X97493114Y-122525906D01*
X97485004Y-122541078D01*
X97378659Y-122670659D01*
X97249078Y-122777004D01*
X97249076Y-122777005D01*
X97101242Y-122856024D01*
X96940823Y-122904687D01*
X96774000Y-122921117D01*
X96607178Y-122904687D01*
X96446759Y-122856024D01*
X96298925Y-122777005D01*
X96298923Y-122777004D01*
X96169342Y-122670659D01*
X96062997Y-122541078D01*
X96054887Y-122525906D01*
X95983977Y-122393242D01*
X95935314Y-122232823D01*
X95923000Y-122107803D01*
X95923000Y-121224197D01*
X95935313Y-121099178D01*
X95983976Y-120938759D01*
X96062995Y-120790923D01*
X96169341Y-120661341D01*
X96298922Y-120554996D01*
X96314094Y-120546886D01*
X96446758Y-120475976D01*
X96607177Y-120427313D01*
X96774000Y-120410883D01*
X96940822Y-120427313D01*
X96940822Y-120427313D01*
G37*
G36*
X92545000Y-122917000D02*
G01*
X90843000Y-122917000D01*
X90843000Y-120415000D01*
X92545000Y-120415000D01*
X92545000Y-122917000D01*
X92545000Y-122917000D01*
G37*
G36*
X121406228Y-117151703D02*
G01*
X121561100Y-117215853D01*
X121700481Y-117308985D01*
X121819015Y-117427519D01*
X121912147Y-117566900D01*
X121976297Y-117721772D01*
X122009000Y-117886184D01*
X122009000Y-118053816D01*
X121976297Y-118218228D01*
X121912147Y-118373100D01*
X121819015Y-118512481D01*
X121700481Y-118631015D01*
X121561100Y-118724147D01*
X121406228Y-118788297D01*
X121241816Y-118821000D01*
X121074184Y-118821000D01*
X120909772Y-118788297D01*
X120754900Y-118724147D01*
X120615519Y-118631015D01*
X120496985Y-118512481D01*
X120403853Y-118373100D01*
X120339703Y-118218228D01*
X120307000Y-118053816D01*
X120307000Y-117886184D01*
X120339703Y-117721772D01*
X120403853Y-117566900D01*
X120496985Y-117427519D01*
X120615519Y-117308985D01*
X120754900Y-117215853D01*
X120909772Y-117151703D01*
X121074184Y-117119000D01*
X121241816Y-117119000D01*
X121406228Y-117151703D01*
X121406228Y-117151703D01*
G37*
G36*
X116382915Y-116809334D02*
G01*
X116491491Y-116842271D01*
X116491494Y-116842272D01*
X116527600Y-116861571D01*
X116591556Y-116895756D01*
X116679264Y-116967736D01*
X116751244Y-117055443D01*
X116774937Y-117099771D01*
X116804728Y-117155505D01*
X116804728Y-117155506D01*
X116804729Y-117155508D01*
X116837666Y-117264084D01*
X116846000Y-117348702D01*
X116846000Y-117855297D01*
X116837666Y-117939916D01*
X116805252Y-118046767D01*
X116804728Y-118048495D01*
X116794761Y-118067141D01*
X116751244Y-118148557D01*
X116679264Y-118236264D01*
X116591557Y-118308244D01*
X116527601Y-118342429D01*
X116491495Y-118361728D01*
X116491492Y-118361729D01*
X116382916Y-118394666D01*
X116270000Y-118405787D01*
X116157085Y-118394666D01*
X116048509Y-118361729D01*
X116048506Y-118361728D01*
X116012400Y-118342429D01*
X115948444Y-118308244D01*
X115860737Y-118236264D01*
X115788757Y-118148557D01*
X115745239Y-118067141D01*
X115731625Y-118046766D01*
X115714298Y-118029439D01*
X115693924Y-118015826D01*
X115671285Y-118006448D01*
X115647252Y-118001668D01*
X115622748Y-118001668D01*
X115598715Y-118006448D01*
X115576076Y-118015826D01*
X115555701Y-118029440D01*
X115538374Y-118046767D01*
X115524761Y-118067141D01*
X115481244Y-118148557D01*
X115409264Y-118236264D01*
X115321557Y-118308244D01*
X115257601Y-118342429D01*
X115221495Y-118361728D01*
X115221492Y-118361729D01*
X115112916Y-118394666D01*
X115000000Y-118405787D01*
X114887085Y-118394666D01*
X114778509Y-118361729D01*
X114778506Y-118361728D01*
X114742400Y-118342429D01*
X114678444Y-118308244D01*
X114590737Y-118236264D01*
X114518757Y-118148557D01*
X114475239Y-118067141D01*
X114461625Y-118046766D01*
X114444298Y-118029439D01*
X114423924Y-118015826D01*
X114401285Y-118006448D01*
X114377252Y-118001668D01*
X114352748Y-118001668D01*
X114328715Y-118006448D01*
X114306076Y-118015826D01*
X114285701Y-118029440D01*
X114268374Y-118046767D01*
X114254761Y-118067141D01*
X114211244Y-118148557D01*
X114139264Y-118236264D01*
X114051557Y-118308244D01*
X113987601Y-118342429D01*
X113951495Y-118361728D01*
X113951492Y-118361729D01*
X113842916Y-118394666D01*
X113730000Y-118405787D01*
X113617085Y-118394666D01*
X113508509Y-118361729D01*
X113508506Y-118361728D01*
X113472400Y-118342429D01*
X113408444Y-118308244D01*
X113320737Y-118236264D01*
X113248757Y-118148557D01*
X113205239Y-118067141D01*
X113195272Y-118048495D01*
X113194748Y-118046767D01*
X113162334Y-117939916D01*
X113154000Y-117855298D01*
X113154000Y-117348703D01*
X113162334Y-117264085D01*
X113195271Y-117155509D01*
X113195272Y-117155506D01*
X113225063Y-117099771D01*
X113248756Y-117055444D01*
X113320736Y-116967736D01*
X113408443Y-116895756D01*
X113472399Y-116861571D01*
X113508505Y-116842272D01*
X113508508Y-116842271D01*
X113617084Y-116809334D01*
X113730000Y-116798213D01*
X113842915Y-116809334D01*
X113951491Y-116842271D01*
X113951494Y-116842272D01*
X113987600Y-116861571D01*
X114051556Y-116895756D01*
X114139264Y-116967736D01*
X114211244Y-117055443D01*
X114245215Y-117119000D01*
X114254761Y-117136859D01*
X114268375Y-117157234D01*
X114285702Y-117174561D01*
X114306076Y-117188174D01*
X114328715Y-117197552D01*
X114352748Y-117202332D01*
X114377252Y-117202332D01*
X114401285Y-117197552D01*
X114423924Y-117188174D01*
X114444299Y-117174560D01*
X114461626Y-117157233D01*
X114475239Y-117136860D01*
X114518756Y-117055444D01*
X114590736Y-116967736D01*
X114678443Y-116895756D01*
X114742399Y-116861571D01*
X114778505Y-116842272D01*
X114778508Y-116842271D01*
X114887084Y-116809334D01*
X115000000Y-116798213D01*
X115112915Y-116809334D01*
X115221491Y-116842271D01*
X115221494Y-116842272D01*
X115257600Y-116861571D01*
X115321556Y-116895756D01*
X115409264Y-116967736D01*
X115481244Y-117055443D01*
X115515215Y-117119000D01*
X115524761Y-117136859D01*
X115538375Y-117157234D01*
X115555702Y-117174561D01*
X115576076Y-117188174D01*
X115598715Y-117197552D01*
X115622748Y-117202332D01*
X115647252Y-117202332D01*
X115671285Y-117197552D01*
X115693924Y-117188174D01*
X115714299Y-117174560D01*
X115731626Y-117157233D01*
X115745239Y-117136860D01*
X115788756Y-117055444D01*
X115860736Y-116967736D01*
X115948443Y-116895756D01*
X116012399Y-116861571D01*
X116048505Y-116842272D01*
X116048508Y-116842271D01*
X116157084Y-116809334D01*
X116270000Y-116798213D01*
X116382915Y-116809334D01*
X116382915Y-116809334D01*
G37*
G36*
X82798228Y-116529703D02*
G01*
X82953100Y-116593853D01*
X83092481Y-116686985D01*
X83211015Y-116805519D01*
X83304147Y-116944900D01*
X83368297Y-117099772D01*
X83401000Y-117264184D01*
X83401000Y-117431816D01*
X83368297Y-117596228D01*
X83304147Y-117751100D01*
X83211015Y-117890481D01*
X83092481Y-118009015D01*
X82953100Y-118102147D01*
X82798228Y-118166297D01*
X82633816Y-118199000D01*
X82466184Y-118199000D01*
X82301772Y-118166297D01*
X82146900Y-118102147D01*
X82007519Y-118009015D01*
X81888985Y-117890481D01*
X81795853Y-117751100D01*
X81731703Y-117596228D01*
X81699000Y-117431816D01*
X81699000Y-117264184D01*
X81731703Y-117099772D01*
X81795853Y-116944900D01*
X81888985Y-116805519D01*
X82007519Y-116686985D01*
X82146900Y-116593853D01*
X82301772Y-116529703D01*
X82466184Y-116497000D01*
X82633816Y-116497000D01*
X82798228Y-116529703D01*
X82798228Y-116529703D01*
G37*
G36*
X81401000Y-118199000D02*
G01*
X79699000Y-118199000D01*
X79699000Y-116497000D01*
X81401000Y-116497000D01*
X81401000Y-118199000D01*
X81401000Y-118199000D01*
G37*
G36*
X99480822Y-112807313D02*
G01*
X99641241Y-112855976D01*
X99789077Y-112934995D01*
X99918659Y-113041341D01*
X100025004Y-113170922D01*
X100025005Y-113170924D01*
X100104024Y-113318758D01*
X100152687Y-113479177D01*
X100165000Y-113604196D01*
X100165000Y-114487803D01*
X100152687Y-114612822D01*
X100104024Y-114773242D01*
X100089642Y-114800148D01*
X100025004Y-114921078D01*
X99918659Y-115050659D01*
X99789078Y-115157004D01*
X99789076Y-115157005D01*
X99641242Y-115236024D01*
X99480823Y-115284687D01*
X99314000Y-115301117D01*
X99147178Y-115284687D01*
X98986759Y-115236024D01*
X98838925Y-115157005D01*
X98838923Y-115157004D01*
X98709342Y-115050659D01*
X98602997Y-114921078D01*
X98538359Y-114800148D01*
X98523977Y-114773242D01*
X98475314Y-114612823D01*
X98463000Y-114487803D01*
X98463000Y-113604197D01*
X98475313Y-113479178D01*
X98523976Y-113318759D01*
X98602995Y-113170923D01*
X98709341Y-113041341D01*
X98838922Y-112934996D01*
X98854094Y-112926886D01*
X98986758Y-112855976D01*
X99147177Y-112807313D01*
X99314000Y-112790883D01*
X99480822Y-112807313D01*
X99480822Y-112807313D01*
G37*
G36*
X94400822Y-112807313D02*
G01*
X94561241Y-112855976D01*
X94709077Y-112934995D01*
X94838659Y-113041341D01*
X94945004Y-113170922D01*
X94945005Y-113170924D01*
X95024024Y-113318758D01*
X95072687Y-113479177D01*
X95085000Y-113604196D01*
X95085000Y-114487803D01*
X95072687Y-114612822D01*
X95024024Y-114773242D01*
X95009642Y-114800148D01*
X94945004Y-114921078D01*
X94838659Y-115050659D01*
X94709078Y-115157004D01*
X94709076Y-115157005D01*
X94561242Y-115236024D01*
X94400823Y-115284687D01*
X94234000Y-115301117D01*
X94067178Y-115284687D01*
X93906759Y-115236024D01*
X93758925Y-115157005D01*
X93758923Y-115157004D01*
X93629342Y-115050659D01*
X93522997Y-114921078D01*
X93458359Y-114800148D01*
X93443977Y-114773242D01*
X93395314Y-114612823D01*
X93383000Y-114487803D01*
X93383000Y-113604197D01*
X93395313Y-113479178D01*
X93443976Y-113318759D01*
X93522995Y-113170923D01*
X93629341Y-113041341D01*
X93758922Y-112934996D01*
X93774094Y-112926886D01*
X93906758Y-112855976D01*
X94067177Y-112807313D01*
X94234000Y-112790883D01*
X94400822Y-112807313D01*
X94400822Y-112807313D01*
G37*
G36*
X96940822Y-112807313D02*
G01*
X97101241Y-112855976D01*
X97249077Y-112934995D01*
X97378659Y-113041341D01*
X97485004Y-113170922D01*
X97485005Y-113170924D01*
X97564024Y-113318758D01*
X97612687Y-113479177D01*
X97625000Y-113604196D01*
X97625000Y-114487803D01*
X97612687Y-114612822D01*
X97564024Y-114773242D01*
X97549642Y-114800148D01*
X97485004Y-114921078D01*
X97378659Y-115050659D01*
X97249078Y-115157004D01*
X97249076Y-115157005D01*
X97101242Y-115236024D01*
X96940823Y-115284687D01*
X96774000Y-115301117D01*
X96607178Y-115284687D01*
X96446759Y-115236024D01*
X96298925Y-115157005D01*
X96298923Y-115157004D01*
X96169342Y-115050659D01*
X96062997Y-114921078D01*
X95998359Y-114800148D01*
X95983977Y-114773242D01*
X95935314Y-114612823D01*
X95923000Y-114487803D01*
X95923000Y-113604197D01*
X95935313Y-113479178D01*
X95983976Y-113318759D01*
X96062995Y-113170923D01*
X96169341Y-113041341D01*
X96298922Y-112934996D01*
X96314094Y-112926886D01*
X96446758Y-112855976D01*
X96607177Y-112807313D01*
X96774000Y-112790883D01*
X96940822Y-112807313D01*
X96940822Y-112807313D01*
G37*
G36*
X91860822Y-112807313D02*
G01*
X92021241Y-112855976D01*
X92169077Y-112934995D01*
X92298659Y-113041341D01*
X92405004Y-113170922D01*
X92405005Y-113170924D01*
X92484024Y-113318758D01*
X92532687Y-113479177D01*
X92545000Y-113604196D01*
X92545000Y-114487803D01*
X92532687Y-114612822D01*
X92484024Y-114773242D01*
X92469642Y-114800148D01*
X92405004Y-114921078D01*
X92298659Y-115050659D01*
X92169078Y-115157004D01*
X92169076Y-115157005D01*
X92021242Y-115236024D01*
X91860823Y-115284687D01*
X91694000Y-115301117D01*
X91527178Y-115284687D01*
X91366759Y-115236024D01*
X91218925Y-115157005D01*
X91218923Y-115157004D01*
X91089342Y-115050659D01*
X90982997Y-114921078D01*
X90918359Y-114800148D01*
X90903977Y-114773242D01*
X90855314Y-114612823D01*
X90843000Y-114487803D01*
X90843000Y-113604197D01*
X90855313Y-113479178D01*
X90903976Y-113318759D01*
X90982995Y-113170923D01*
X91089341Y-113041341D01*
X91218922Y-112934996D01*
X91234094Y-112926886D01*
X91366758Y-112855976D01*
X91527177Y-112807313D01*
X91694000Y-112790883D01*
X91860822Y-112807313D01*
X91860822Y-112807313D01*
G37*
G36*
X105148228Y-113227703D02*
G01*
X105303100Y-113291853D01*
X105442481Y-113384985D01*
X105561015Y-113503519D01*
X105654147Y-113642900D01*
X105718297Y-113797772D01*
X105751000Y-113962184D01*
X105751000Y-114129816D01*
X105718297Y-114294228D01*
X105654147Y-114449100D01*
X105561015Y-114588481D01*
X105442481Y-114707015D01*
X105303100Y-114800147D01*
X105148228Y-114864297D01*
X104983816Y-114897000D01*
X104816184Y-114897000D01*
X104651772Y-114864297D01*
X104496900Y-114800147D01*
X104357519Y-114707015D01*
X104238985Y-114588481D01*
X104145853Y-114449100D01*
X104081703Y-114294228D01*
X104049000Y-114129816D01*
X104049000Y-113962184D01*
X104081703Y-113797772D01*
X104145853Y-113642900D01*
X104238985Y-113503519D01*
X104357519Y-113384985D01*
X104496900Y-113291853D01*
X104651772Y-113227703D01*
X104816184Y-113195000D01*
X104983816Y-113195000D01*
X105148228Y-113227703D01*
X105148228Y-113227703D01*
G37*
G36*
X109722228Y-113227703D02*
G01*
X109877100Y-113291853D01*
X110016481Y-113384985D01*
X110135015Y-113503519D01*
X110228147Y-113642900D01*
X110292297Y-113797772D01*
X110325000Y-113962184D01*
X110325000Y-114129816D01*
X110292297Y-114294228D01*
X110228147Y-114449100D01*
X110135015Y-114588481D01*
X110016481Y-114707015D01*
X109877100Y-114800147D01*
X109722228Y-114864297D01*
X109557816Y-114897000D01*
X109390184Y-114897000D01*
X109225772Y-114864297D01*
X109070900Y-114800147D01*
X108931519Y-114707015D01*
X108812985Y-114588481D01*
X108719853Y-114449100D01*
X108655703Y-114294228D01*
X108623000Y-114129816D01*
X108623000Y-113962184D01*
X108655703Y-113797772D01*
X108719853Y-113642900D01*
X108812985Y-113503519D01*
X108931519Y-113384985D01*
X109070900Y-113291853D01*
X109225772Y-113227703D01*
X109390184Y-113195000D01*
X109557816Y-113195000D01*
X109722228Y-113227703D01*
X109722228Y-113227703D01*
G37*
G36*
X79242228Y-111195703D02*
G01*
X79397100Y-111259853D01*
X79536481Y-111352985D01*
X79655015Y-111471519D01*
X79748147Y-111610900D01*
X79812297Y-111765772D01*
X79845000Y-111930184D01*
X79845000Y-112097816D01*
X79812297Y-112262228D01*
X79748147Y-112417100D01*
X79655015Y-112556481D01*
X79536481Y-112675015D01*
X79397100Y-112768147D01*
X79242228Y-112832297D01*
X79077816Y-112865000D01*
X78910184Y-112865000D01*
X78745772Y-112832297D01*
X78590900Y-112768147D01*
X78451519Y-112675015D01*
X78332985Y-112556481D01*
X78239853Y-112417100D01*
X78175703Y-112262228D01*
X78143000Y-112097816D01*
X78143000Y-111930184D01*
X78175703Y-111765772D01*
X78239853Y-111610900D01*
X78332985Y-111471519D01*
X78451519Y-111352985D01*
X78590900Y-111259853D01*
X78745772Y-111195703D01*
X78910184Y-111163000D01*
X79077816Y-111163000D01*
X79242228Y-111195703D01*
X79242228Y-111195703D01*
G37*
G36*
X121406228Y-109531703D02*
G01*
X121561100Y-109595853D01*
X121700481Y-109688985D01*
X121819015Y-109807519D01*
X121912147Y-109946900D01*
X121976297Y-110101772D01*
X122009000Y-110266184D01*
X122009000Y-110433816D01*
X121976297Y-110598228D01*
X121912147Y-110753100D01*
X121819015Y-110892481D01*
X121700481Y-111011015D01*
X121561100Y-111104147D01*
X121406228Y-111168297D01*
X121241816Y-111201000D01*
X121074184Y-111201000D01*
X120909772Y-111168297D01*
X120754900Y-111104147D01*
X120615519Y-111011015D01*
X120496985Y-110892481D01*
X120403853Y-110753100D01*
X120339703Y-110598228D01*
X120307000Y-110433816D01*
X120307000Y-110266184D01*
X120339703Y-110101772D01*
X120403853Y-109946900D01*
X120496985Y-109807519D01*
X120615519Y-109688985D01*
X120754900Y-109595853D01*
X120909772Y-109531703D01*
X121074184Y-109499000D01*
X121241816Y-109499000D01*
X121406228Y-109531703D01*
X121406228Y-109531703D01*
G37*
G36*
X121406228Y-106151703D02*
G01*
X121561100Y-106215853D01*
X121700481Y-106308985D01*
X121819015Y-106427519D01*
X121912147Y-106566900D01*
X121976297Y-106721772D01*
X122009000Y-106886184D01*
X122009000Y-107053816D01*
X121976297Y-107218228D01*
X121912147Y-107373100D01*
X121819015Y-107512481D01*
X121700481Y-107631015D01*
X121561100Y-107724147D01*
X121406228Y-107788297D01*
X121241816Y-107821000D01*
X121074184Y-107821000D01*
X120909772Y-107788297D01*
X120754900Y-107724147D01*
X120615519Y-107631015D01*
X120496985Y-107512481D01*
X120403853Y-107373100D01*
X120339703Y-107218228D01*
X120307000Y-107053816D01*
X120307000Y-106886184D01*
X120339703Y-106721772D01*
X120403853Y-106566900D01*
X120496985Y-106427519D01*
X120615519Y-106308985D01*
X120754900Y-106215853D01*
X120909772Y-106151703D01*
X121074184Y-106119000D01*
X121241816Y-106119000D01*
X121406228Y-106151703D01*
X121406228Y-106151703D01*
G37*
G36*
X109722228Y-105607703D02*
G01*
X109877100Y-105671853D01*
X110016481Y-105764985D01*
X110135015Y-105883519D01*
X110228147Y-106022900D01*
X110292297Y-106177772D01*
X110325000Y-106342184D01*
X110325000Y-106509816D01*
X110292297Y-106674228D01*
X110228147Y-106829100D01*
X110135015Y-106968481D01*
X110016481Y-107087015D01*
X109877100Y-107180147D01*
X109722228Y-107244297D01*
X109557816Y-107277000D01*
X109390184Y-107277000D01*
X109225772Y-107244297D01*
X109070900Y-107180147D01*
X108931519Y-107087015D01*
X108812985Y-106968481D01*
X108719853Y-106829100D01*
X108655703Y-106674228D01*
X108623000Y-106509816D01*
X108623000Y-106342184D01*
X108655703Y-106177772D01*
X108719853Y-106022900D01*
X108812985Y-105883519D01*
X108931519Y-105764985D01*
X109070900Y-105671853D01*
X109225772Y-105607703D01*
X109390184Y-105575000D01*
X109557816Y-105575000D01*
X109722228Y-105607703D01*
X109722228Y-105607703D01*
G37*
G36*
X105148228Y-105607703D02*
G01*
X105303100Y-105671853D01*
X105442481Y-105764985D01*
X105561015Y-105883519D01*
X105654147Y-106022900D01*
X105718297Y-106177772D01*
X105751000Y-106342184D01*
X105751000Y-106509816D01*
X105718297Y-106674228D01*
X105654147Y-106829100D01*
X105561015Y-106968481D01*
X105442481Y-107087015D01*
X105303100Y-107180147D01*
X105148228Y-107244297D01*
X104983816Y-107277000D01*
X104816184Y-107277000D01*
X104651772Y-107244297D01*
X104496900Y-107180147D01*
X104357519Y-107087015D01*
X104238985Y-106968481D01*
X104145853Y-106829100D01*
X104081703Y-106674228D01*
X104049000Y-106509816D01*
X104049000Y-106342184D01*
X104081703Y-106177772D01*
X104145853Y-106022900D01*
X104238985Y-105883519D01*
X104357519Y-105764985D01*
X104496900Y-105671853D01*
X104651772Y-105607703D01*
X104816184Y-105575000D01*
X104983816Y-105575000D01*
X105148228Y-105607703D01*
X105148228Y-105607703D01*
G37*
G36*
X86382915Y-105665334D02*
G01*
X86491491Y-105698271D01*
X86491494Y-105698272D01*
X86527600Y-105717571D01*
X86591556Y-105751756D01*
X86679264Y-105823736D01*
X86751244Y-105911443D01*
X86785429Y-105975399D01*
X86804728Y-106011505D01*
X86804728Y-106011506D01*
X86804729Y-106011508D01*
X86837666Y-106120084D01*
X86846000Y-106204702D01*
X86846000Y-106711297D01*
X86837666Y-106795916D01*
X86805252Y-106902767D01*
X86804728Y-106904495D01*
X86794761Y-106923141D01*
X86751244Y-107004557D01*
X86679264Y-107092264D01*
X86591557Y-107164244D01*
X86527601Y-107198429D01*
X86491495Y-107217728D01*
X86491492Y-107217729D01*
X86382916Y-107250666D01*
X86270000Y-107261787D01*
X86157085Y-107250666D01*
X86048509Y-107217729D01*
X86048506Y-107217728D01*
X86012400Y-107198429D01*
X85948444Y-107164244D01*
X85860737Y-107092264D01*
X85788757Y-107004557D01*
X85745239Y-106923141D01*
X85731625Y-106902766D01*
X85714298Y-106885439D01*
X85693924Y-106871826D01*
X85671285Y-106862448D01*
X85647252Y-106857668D01*
X85622748Y-106857668D01*
X85598715Y-106862448D01*
X85576076Y-106871826D01*
X85555701Y-106885440D01*
X85538374Y-106902767D01*
X85524761Y-106923141D01*
X85481244Y-107004557D01*
X85409264Y-107092264D01*
X85321557Y-107164244D01*
X85257601Y-107198429D01*
X85221495Y-107217728D01*
X85221492Y-107217729D01*
X85112916Y-107250666D01*
X85000000Y-107261787D01*
X84887085Y-107250666D01*
X84778509Y-107217729D01*
X84778506Y-107217728D01*
X84742400Y-107198429D01*
X84678444Y-107164244D01*
X84590737Y-107092264D01*
X84518757Y-107004557D01*
X84475239Y-106923141D01*
X84461625Y-106902766D01*
X84444298Y-106885439D01*
X84423924Y-106871826D01*
X84401285Y-106862448D01*
X84377252Y-106857668D01*
X84352748Y-106857668D01*
X84328715Y-106862448D01*
X84306076Y-106871826D01*
X84285701Y-106885440D01*
X84268374Y-106902767D01*
X84254761Y-106923141D01*
X84211244Y-107004557D01*
X84139264Y-107092264D01*
X84051557Y-107164244D01*
X83987601Y-107198429D01*
X83951495Y-107217728D01*
X83951492Y-107217729D01*
X83842916Y-107250666D01*
X83730000Y-107261787D01*
X83617085Y-107250666D01*
X83508509Y-107217729D01*
X83508506Y-107217728D01*
X83472400Y-107198429D01*
X83408444Y-107164244D01*
X83320737Y-107092264D01*
X83248757Y-107004557D01*
X83205239Y-106923141D01*
X83195272Y-106904495D01*
X83194748Y-106902767D01*
X83162334Y-106795916D01*
X83154000Y-106711298D01*
X83154000Y-106204703D01*
X83162334Y-106120085D01*
X83195271Y-106011509D01*
X83195272Y-106011506D01*
X83214571Y-105975400D01*
X83248756Y-105911444D01*
X83320736Y-105823736D01*
X83408443Y-105751756D01*
X83472399Y-105717571D01*
X83508505Y-105698272D01*
X83508508Y-105698271D01*
X83617084Y-105665334D01*
X83730000Y-105654213D01*
X83842915Y-105665334D01*
X83951491Y-105698271D01*
X83951494Y-105698272D01*
X83987600Y-105717571D01*
X84051556Y-105751756D01*
X84139264Y-105823736D01*
X84211244Y-105911443D01*
X84254761Y-105992859D01*
X84268375Y-106013234D01*
X84285702Y-106030561D01*
X84306076Y-106044174D01*
X84328715Y-106053552D01*
X84352748Y-106058332D01*
X84377252Y-106058332D01*
X84401285Y-106053552D01*
X84423924Y-106044174D01*
X84444299Y-106030560D01*
X84461626Y-106013233D01*
X84475239Y-105992860D01*
X84518756Y-105911444D01*
X84590736Y-105823736D01*
X84678443Y-105751756D01*
X84742399Y-105717571D01*
X84778505Y-105698272D01*
X84778508Y-105698271D01*
X84887084Y-105665334D01*
X85000000Y-105654213D01*
X85112915Y-105665334D01*
X85221491Y-105698271D01*
X85221494Y-105698272D01*
X85257600Y-105717571D01*
X85321556Y-105751756D01*
X85409264Y-105823736D01*
X85481244Y-105911443D01*
X85524761Y-105992859D01*
X85538375Y-106013234D01*
X85555702Y-106030561D01*
X85576076Y-106044174D01*
X85598715Y-106053552D01*
X85622748Y-106058332D01*
X85647252Y-106058332D01*
X85671285Y-106053552D01*
X85693924Y-106044174D01*
X85714299Y-106030560D01*
X85731626Y-106013233D01*
X85745239Y-105992860D01*
X85788756Y-105911444D01*
X85860736Y-105823736D01*
X85948443Y-105751756D01*
X86012399Y-105717571D01*
X86048505Y-105698272D01*
X86048508Y-105698271D01*
X86157084Y-105665334D01*
X86270000Y-105654213D01*
X86382915Y-105665334D01*
X86382915Y-105665334D01*
G37*
G36*
X116382915Y-105665334D02*
G01*
X116491491Y-105698271D01*
X116491494Y-105698272D01*
X116527600Y-105717571D01*
X116591556Y-105751756D01*
X116679264Y-105823736D01*
X116751244Y-105911443D01*
X116785429Y-105975399D01*
X116804728Y-106011505D01*
X116804728Y-106011506D01*
X116804729Y-106011508D01*
X116837666Y-106120084D01*
X116846000Y-106204702D01*
X116846000Y-106711297D01*
X116837666Y-106795916D01*
X116805252Y-106902767D01*
X116804728Y-106904495D01*
X116794761Y-106923141D01*
X116751244Y-107004557D01*
X116679264Y-107092264D01*
X116591557Y-107164244D01*
X116527601Y-107198429D01*
X116491495Y-107217728D01*
X116491492Y-107217729D01*
X116382916Y-107250666D01*
X116270000Y-107261787D01*
X116157085Y-107250666D01*
X116048509Y-107217729D01*
X116048506Y-107217728D01*
X116012400Y-107198429D01*
X115948444Y-107164244D01*
X115860737Y-107092264D01*
X115788757Y-107004557D01*
X115745239Y-106923141D01*
X115731625Y-106902766D01*
X115714298Y-106885439D01*
X115693924Y-106871826D01*
X115671285Y-106862448D01*
X115647252Y-106857668D01*
X115622748Y-106857668D01*
X115598715Y-106862448D01*
X115576076Y-106871826D01*
X115555701Y-106885440D01*
X115538374Y-106902767D01*
X115524761Y-106923141D01*
X115481244Y-107004557D01*
X115409264Y-107092264D01*
X115321557Y-107164244D01*
X115257601Y-107198429D01*
X115221495Y-107217728D01*
X115221492Y-107217729D01*
X115112916Y-107250666D01*
X115000000Y-107261787D01*
X114887085Y-107250666D01*
X114778509Y-107217729D01*
X114778506Y-107217728D01*
X114742400Y-107198429D01*
X114678444Y-107164244D01*
X114590737Y-107092264D01*
X114518757Y-107004557D01*
X114475239Y-106923141D01*
X114461625Y-106902766D01*
X114444298Y-106885439D01*
X114423924Y-106871826D01*
X114401285Y-106862448D01*
X114377252Y-106857668D01*
X114352748Y-106857668D01*
X114328715Y-106862448D01*
X114306076Y-106871826D01*
X114285701Y-106885440D01*
X114268374Y-106902767D01*
X114254761Y-106923141D01*
X114211244Y-107004557D01*
X114139264Y-107092264D01*
X114051557Y-107164244D01*
X113987601Y-107198429D01*
X113951495Y-107217728D01*
X113951492Y-107217729D01*
X113842916Y-107250666D01*
X113730000Y-107261787D01*
X113617085Y-107250666D01*
X113508509Y-107217729D01*
X113508506Y-107217728D01*
X113472400Y-107198429D01*
X113408444Y-107164244D01*
X113320737Y-107092264D01*
X113248757Y-107004557D01*
X113205239Y-106923141D01*
X113195272Y-106904495D01*
X113194748Y-106902767D01*
X113162334Y-106795916D01*
X113154000Y-106711298D01*
X113154000Y-106204703D01*
X113162334Y-106120085D01*
X113195271Y-106011509D01*
X113195272Y-106011506D01*
X113214571Y-105975400D01*
X113248756Y-105911444D01*
X113320736Y-105823736D01*
X113408443Y-105751756D01*
X113472399Y-105717571D01*
X113508505Y-105698272D01*
X113508508Y-105698271D01*
X113617084Y-105665334D01*
X113730000Y-105654213D01*
X113842915Y-105665334D01*
X113951491Y-105698271D01*
X113951494Y-105698272D01*
X113987600Y-105717571D01*
X114051556Y-105751756D01*
X114139264Y-105823736D01*
X114211244Y-105911443D01*
X114254761Y-105992859D01*
X114268375Y-106013234D01*
X114285702Y-106030561D01*
X114306076Y-106044174D01*
X114328715Y-106053552D01*
X114352748Y-106058332D01*
X114377252Y-106058332D01*
X114401285Y-106053552D01*
X114423924Y-106044174D01*
X114444299Y-106030560D01*
X114461626Y-106013233D01*
X114475239Y-105992860D01*
X114518756Y-105911444D01*
X114590736Y-105823736D01*
X114678443Y-105751756D01*
X114742399Y-105717571D01*
X114778505Y-105698272D01*
X114778508Y-105698271D01*
X114887084Y-105665334D01*
X115000000Y-105654213D01*
X115112915Y-105665334D01*
X115221491Y-105698271D01*
X115221494Y-105698272D01*
X115257600Y-105717571D01*
X115321556Y-105751756D01*
X115409264Y-105823736D01*
X115481244Y-105911443D01*
X115524761Y-105992859D01*
X115538375Y-106013234D01*
X115555702Y-106030561D01*
X115576076Y-106044174D01*
X115598715Y-106053552D01*
X115622748Y-106058332D01*
X115647252Y-106058332D01*
X115671285Y-106053552D01*
X115693924Y-106044174D01*
X115714299Y-106030560D01*
X115731626Y-106013233D01*
X115745239Y-105992860D01*
X115788756Y-105911444D01*
X115860736Y-105823736D01*
X115948443Y-105751756D01*
X116012399Y-105717571D01*
X116048505Y-105698272D01*
X116048508Y-105698271D01*
X116157084Y-105665334D01*
X116270000Y-105654213D01*
X116382915Y-105665334D01*
X116382915Y-105665334D01*
G37*
G36*
X101382915Y-105665334D02*
G01*
X101491491Y-105698271D01*
X101491494Y-105698272D01*
X101527600Y-105717571D01*
X101591556Y-105751756D01*
X101679264Y-105823736D01*
X101751244Y-105911443D01*
X101785429Y-105975399D01*
X101804728Y-106011505D01*
X101804728Y-106011506D01*
X101804729Y-106011508D01*
X101837666Y-106120084D01*
X101846000Y-106204702D01*
X101846000Y-106711297D01*
X101837666Y-106795916D01*
X101805252Y-106902767D01*
X101804728Y-106904495D01*
X101794761Y-106923141D01*
X101751244Y-107004557D01*
X101679264Y-107092264D01*
X101591557Y-107164244D01*
X101527601Y-107198429D01*
X101491495Y-107217728D01*
X101491492Y-107217729D01*
X101382916Y-107250666D01*
X101270000Y-107261787D01*
X101157085Y-107250666D01*
X101048509Y-107217729D01*
X101048506Y-107217728D01*
X101012400Y-107198429D01*
X100948444Y-107164244D01*
X100860737Y-107092264D01*
X100788757Y-107004557D01*
X100745239Y-106923141D01*
X100731625Y-106902766D01*
X100714298Y-106885439D01*
X100693924Y-106871826D01*
X100671285Y-106862448D01*
X100647252Y-106857668D01*
X100622748Y-106857668D01*
X100598715Y-106862448D01*
X100576076Y-106871826D01*
X100555701Y-106885440D01*
X100538374Y-106902767D01*
X100524761Y-106923141D01*
X100481244Y-107004557D01*
X100409264Y-107092264D01*
X100321557Y-107164244D01*
X100257601Y-107198429D01*
X100221495Y-107217728D01*
X100221492Y-107217729D01*
X100112916Y-107250666D01*
X100000000Y-107261787D01*
X99887085Y-107250666D01*
X99778509Y-107217729D01*
X99778506Y-107217728D01*
X99742400Y-107198429D01*
X99678444Y-107164244D01*
X99590737Y-107092264D01*
X99518757Y-107004557D01*
X99475239Y-106923141D01*
X99461625Y-106902766D01*
X99444298Y-106885439D01*
X99423924Y-106871826D01*
X99401285Y-106862448D01*
X99377252Y-106857668D01*
X99352748Y-106857668D01*
X99328715Y-106862448D01*
X99306076Y-106871826D01*
X99285701Y-106885440D01*
X99268374Y-106902767D01*
X99254761Y-106923141D01*
X99211244Y-107004557D01*
X99139264Y-107092264D01*
X99051557Y-107164244D01*
X98987601Y-107198429D01*
X98951495Y-107217728D01*
X98951492Y-107217729D01*
X98842916Y-107250666D01*
X98730000Y-107261787D01*
X98617085Y-107250666D01*
X98508509Y-107217729D01*
X98508506Y-107217728D01*
X98472400Y-107198429D01*
X98408444Y-107164244D01*
X98320737Y-107092264D01*
X98248757Y-107004557D01*
X98205239Y-106923141D01*
X98195272Y-106904495D01*
X98194748Y-106902767D01*
X98162334Y-106795916D01*
X98154000Y-106711298D01*
X98154000Y-106204703D01*
X98162334Y-106120085D01*
X98195271Y-106011509D01*
X98195272Y-106011506D01*
X98214571Y-105975400D01*
X98248756Y-105911444D01*
X98320736Y-105823736D01*
X98408443Y-105751756D01*
X98472399Y-105717571D01*
X98508505Y-105698272D01*
X98508508Y-105698271D01*
X98617084Y-105665334D01*
X98730000Y-105654213D01*
X98842915Y-105665334D01*
X98951491Y-105698271D01*
X98951494Y-105698272D01*
X98987600Y-105717571D01*
X99051556Y-105751756D01*
X99139264Y-105823736D01*
X99211244Y-105911443D01*
X99254761Y-105992859D01*
X99268375Y-106013234D01*
X99285702Y-106030561D01*
X99306076Y-106044174D01*
X99328715Y-106053552D01*
X99352748Y-106058332D01*
X99377252Y-106058332D01*
X99401285Y-106053552D01*
X99423924Y-106044174D01*
X99444299Y-106030560D01*
X99461626Y-106013233D01*
X99475239Y-105992860D01*
X99518756Y-105911444D01*
X99590736Y-105823736D01*
X99678443Y-105751756D01*
X99742399Y-105717571D01*
X99778505Y-105698272D01*
X99778508Y-105698271D01*
X99887084Y-105665334D01*
X100000000Y-105654213D01*
X100112915Y-105665334D01*
X100221491Y-105698271D01*
X100221494Y-105698272D01*
X100257600Y-105717571D01*
X100321556Y-105751756D01*
X100409264Y-105823736D01*
X100481244Y-105911443D01*
X100524761Y-105992859D01*
X100538375Y-106013234D01*
X100555702Y-106030561D01*
X100576076Y-106044174D01*
X100598715Y-106053552D01*
X100622748Y-106058332D01*
X100647252Y-106058332D01*
X100671285Y-106053552D01*
X100693924Y-106044174D01*
X100714299Y-106030560D01*
X100731626Y-106013233D01*
X100745239Y-105992860D01*
X100788756Y-105911444D01*
X100860736Y-105823736D01*
X100948443Y-105751756D01*
X101012399Y-105717571D01*
X101048505Y-105698272D01*
X101048508Y-105698271D01*
X101157084Y-105665334D01*
X101270000Y-105654213D01*
X101382915Y-105665334D01*
X101382915Y-105665334D01*
G37*
G36*
X79242228Y-103575703D02*
G01*
X79397100Y-103639853D01*
X79536481Y-103732985D01*
X79655015Y-103851519D01*
X79748147Y-103990900D01*
X79812297Y-104145772D01*
X79845000Y-104310184D01*
X79845000Y-104477816D01*
X79812297Y-104642228D01*
X79748147Y-104797100D01*
X79655015Y-104936481D01*
X79536481Y-105055015D01*
X79397100Y-105148147D01*
X79242228Y-105212297D01*
X79077816Y-105245000D01*
X78910184Y-105245000D01*
X78745772Y-105212297D01*
X78590900Y-105148147D01*
X78451519Y-105055015D01*
X78332985Y-104936481D01*
X78239853Y-104797100D01*
X78175703Y-104642228D01*
X78143000Y-104477816D01*
X78143000Y-104310184D01*
X78175703Y-104145772D01*
X78239853Y-103990900D01*
X78332985Y-103851519D01*
X78451519Y-103732985D01*
X78590900Y-103639853D01*
X78745772Y-103575703D01*
X78910184Y-103543000D01*
X79077816Y-103543000D01*
X79242228Y-103575703D01*
X79242228Y-103575703D01*
G37*
G36*
X104058228Y-99181703D02*
G01*
X104213100Y-99245853D01*
X104352481Y-99338985D01*
X104471015Y-99457519D01*
X104564147Y-99596900D01*
X104628297Y-99751772D01*
X104661000Y-99916184D01*
X104661000Y-100083816D01*
X104628297Y-100248228D01*
X104564147Y-100403100D01*
X104471015Y-100542481D01*
X104352481Y-100661015D01*
X104213100Y-100754147D01*
X104058228Y-100818297D01*
X103893816Y-100851000D01*
X103726184Y-100851000D01*
X103561772Y-100818297D01*
X103406900Y-100754147D01*
X103267519Y-100661015D01*
X103148985Y-100542481D01*
X103055853Y-100403100D01*
X102991703Y-100248228D01*
X102959000Y-100083816D01*
X102959000Y-99916184D01*
X102991703Y-99751772D01*
X103055853Y-99596900D01*
X103148985Y-99457519D01*
X103267519Y-99338985D01*
X103406900Y-99245853D01*
X103561772Y-99181703D01*
X103726184Y-99149000D01*
X103893816Y-99149000D01*
X104058228Y-99181703D01*
X104058228Y-99181703D01*
G37*
G36*
X96438228Y-99181703D02*
G01*
X96593100Y-99245853D01*
X96732481Y-99338985D01*
X96851015Y-99457519D01*
X96944147Y-99596900D01*
X97008297Y-99751772D01*
X97041000Y-99916184D01*
X97041000Y-100083816D01*
X97008297Y-100248228D01*
X96944147Y-100403100D01*
X96851015Y-100542481D01*
X96732481Y-100661015D01*
X96593100Y-100754147D01*
X96438228Y-100818297D01*
X96273816Y-100851000D01*
X96106184Y-100851000D01*
X95941772Y-100818297D01*
X95786900Y-100754147D01*
X95647519Y-100661015D01*
X95528985Y-100542481D01*
X95435853Y-100403100D01*
X95371703Y-100248228D01*
X95339000Y-100083816D01*
X95339000Y-99916184D01*
X95371703Y-99751772D01*
X95435853Y-99596900D01*
X95528985Y-99457519D01*
X95647519Y-99338985D01*
X95786900Y-99245853D01*
X95941772Y-99181703D01*
X96106184Y-99149000D01*
X96273816Y-99149000D01*
X96438228Y-99181703D01*
X96438228Y-99181703D01*
G37*
G36*
X121406228Y-98531703D02*
G01*
X121561100Y-98595853D01*
X121700481Y-98688985D01*
X121819015Y-98807519D01*
X121912147Y-98946900D01*
X121976297Y-99101772D01*
X122009000Y-99266184D01*
X122009000Y-99433816D01*
X121976297Y-99598228D01*
X121912147Y-99753100D01*
X121819015Y-99892481D01*
X121700481Y-100011015D01*
X121561100Y-100104147D01*
X121406228Y-100168297D01*
X121241816Y-100201000D01*
X121074184Y-100201000D01*
X120909772Y-100168297D01*
X120754900Y-100104147D01*
X120615519Y-100011015D01*
X120496985Y-99892481D01*
X120403853Y-99753100D01*
X120339703Y-99598228D01*
X120307000Y-99433816D01*
X120307000Y-99266184D01*
X120339703Y-99101772D01*
X120403853Y-98946900D01*
X120496985Y-98807519D01*
X120615519Y-98688985D01*
X120754900Y-98595853D01*
X120909772Y-98531703D01*
X121074184Y-98499000D01*
X121241816Y-98499000D01*
X121406228Y-98531703D01*
X121406228Y-98531703D01*
G37*
G36*
X115697000Y-98679000D02*
G01*
X113795000Y-98679000D01*
X113795000Y-96777000D01*
X115697000Y-96777000D01*
X115697000Y-98679000D01*
X115697000Y-98679000D01*
G37*
G36*
X85697000Y-98679000D02*
G01*
X83795000Y-98679000D01*
X83795000Y-96777000D01*
X85697000Y-96777000D01*
X85697000Y-98679000D01*
X85697000Y-98679000D01*
G37*
G36*
X115023395Y-94273546D02*
G01*
X115196466Y-94345234D01*
X115196467Y-94345235D01*
X115352227Y-94449310D01*
X115484690Y-94581773D01*
X115484691Y-94581775D01*
X115588766Y-94737534D01*
X115660454Y-94910605D01*
X115697000Y-95094333D01*
X115697000Y-95281667D01*
X115660454Y-95465395D01*
X115588766Y-95638466D01*
X115588765Y-95638467D01*
X115484690Y-95794227D01*
X115352227Y-95926690D01*
X115273818Y-95979081D01*
X115196466Y-96030766D01*
X115023395Y-96102454D01*
X114839667Y-96139000D01*
X114652333Y-96139000D01*
X114468605Y-96102454D01*
X114295534Y-96030766D01*
X114218182Y-95979081D01*
X114139773Y-95926690D01*
X114007310Y-95794227D01*
X113903235Y-95638467D01*
X113903234Y-95638466D01*
X113831546Y-95465395D01*
X113795000Y-95281667D01*
X113795000Y-95094333D01*
X113831546Y-94910605D01*
X113903234Y-94737534D01*
X114007309Y-94581775D01*
X114007310Y-94581773D01*
X114139773Y-94449310D01*
X114295533Y-94345235D01*
X114295534Y-94345234D01*
X114468605Y-94273546D01*
X114652333Y-94237000D01*
X114839667Y-94237000D01*
X115023395Y-94273546D01*
X115023395Y-94273546D01*
G37*
G36*
X85023395Y-94273546D02*
G01*
X85196466Y-94345234D01*
X85196467Y-94345235D01*
X85352227Y-94449310D01*
X85484690Y-94581773D01*
X85484691Y-94581775D01*
X85588766Y-94737534D01*
X85660454Y-94910605D01*
X85697000Y-95094333D01*
X85697000Y-95281667D01*
X85660454Y-95465395D01*
X85588766Y-95638466D01*
X85588765Y-95638467D01*
X85484690Y-95794227D01*
X85352227Y-95926690D01*
X85273818Y-95979081D01*
X85196466Y-96030766D01*
X85023395Y-96102454D01*
X84839667Y-96139000D01*
X84652333Y-96139000D01*
X84468605Y-96102454D01*
X84295534Y-96030766D01*
X84218182Y-95979081D01*
X84139773Y-95926690D01*
X84007310Y-95794227D01*
X83903235Y-95638467D01*
X83903234Y-95638466D01*
X83831546Y-95465395D01*
X83795000Y-95281667D01*
X83795000Y-95094333D01*
X83831546Y-94910605D01*
X83903234Y-94737534D01*
X84007309Y-94581775D01*
X84007310Y-94581773D01*
X84139773Y-94449310D01*
X84295533Y-94345235D01*
X84295534Y-94345234D01*
X84468605Y-94273546D01*
X84652333Y-94237000D01*
X84839667Y-94237000D01*
X85023395Y-94273546D01*
X85023395Y-94273546D01*
G37*
G36*
X115697000Y-83679000D02*
G01*
X113795000Y-83679000D01*
X113795000Y-81777000D01*
X115697000Y-81777000D01*
X115697000Y-83679000D01*
X115697000Y-83679000D01*
G37*
G36*
X100697000Y-83679000D02*
G01*
X98795000Y-83679000D01*
X98795000Y-81777000D01*
X100697000Y-81777000D01*
X100697000Y-83679000D01*
X100697000Y-83679000D01*
G37*
G36*
X85697000Y-83679000D02*
G01*
X83795000Y-83679000D01*
X83795000Y-81777000D01*
X85697000Y-81777000D01*
X85697000Y-83679000D01*
X85697000Y-83679000D01*
G37*
G36*
X115023395Y-79273546D02*
G01*
X115196466Y-79345234D01*
X115196467Y-79345235D01*
X115352227Y-79449310D01*
X115484690Y-79581773D01*
X115484691Y-79581775D01*
X115588766Y-79737534D01*
X115660454Y-79910605D01*
X115697000Y-80094333D01*
X115697000Y-80281667D01*
X115660454Y-80465395D01*
X115588766Y-80638466D01*
X115588765Y-80638467D01*
X115484690Y-80794227D01*
X115352227Y-80926690D01*
X115273818Y-80979081D01*
X115196466Y-81030766D01*
X115023395Y-81102454D01*
X114839667Y-81139000D01*
X114652333Y-81139000D01*
X114468605Y-81102454D01*
X114295534Y-81030766D01*
X114218182Y-80979081D01*
X114139773Y-80926690D01*
X114007310Y-80794227D01*
X113903235Y-80638467D01*
X113903234Y-80638466D01*
X113831546Y-80465395D01*
X113795000Y-80281667D01*
X113795000Y-80094333D01*
X113831546Y-79910605D01*
X113903234Y-79737534D01*
X114007309Y-79581775D01*
X114007310Y-79581773D01*
X114139773Y-79449310D01*
X114295533Y-79345235D01*
X114295534Y-79345234D01*
X114468605Y-79273546D01*
X114652333Y-79237000D01*
X114839667Y-79237000D01*
X115023395Y-79273546D01*
X115023395Y-79273546D01*
G37*
G36*
X100023395Y-79273546D02*
G01*
X100196466Y-79345234D01*
X100196467Y-79345235D01*
X100352227Y-79449310D01*
X100484690Y-79581773D01*
X100484691Y-79581775D01*
X100588766Y-79737534D01*
X100660454Y-79910605D01*
X100697000Y-80094333D01*
X100697000Y-80281667D01*
X100660454Y-80465395D01*
X100588766Y-80638466D01*
X100588765Y-80638467D01*
X100484690Y-80794227D01*
X100352227Y-80926690D01*
X100273818Y-80979081D01*
X100196466Y-81030766D01*
X100023395Y-81102454D01*
X99839667Y-81139000D01*
X99652333Y-81139000D01*
X99468605Y-81102454D01*
X99295534Y-81030766D01*
X99218182Y-80979081D01*
X99139773Y-80926690D01*
X99007310Y-80794227D01*
X98903235Y-80638467D01*
X98903234Y-80638466D01*
X98831546Y-80465395D01*
X98795000Y-80281667D01*
X98795000Y-80094333D01*
X98831546Y-79910605D01*
X98903234Y-79737534D01*
X99007309Y-79581775D01*
X99007310Y-79581773D01*
X99139773Y-79449310D01*
X99295533Y-79345235D01*
X99295534Y-79345234D01*
X99468605Y-79273546D01*
X99652333Y-79237000D01*
X99839667Y-79237000D01*
X100023395Y-79273546D01*
X100023395Y-79273546D01*
G37*
G36*
X85023395Y-79273546D02*
G01*
X85196466Y-79345234D01*
X85196467Y-79345235D01*
X85352227Y-79449310D01*
X85484690Y-79581773D01*
X85484691Y-79581775D01*
X85588766Y-79737534D01*
X85660454Y-79910605D01*
X85697000Y-80094333D01*
X85697000Y-80281667D01*
X85660454Y-80465395D01*
X85588766Y-80638466D01*
X85588765Y-80638467D01*
X85484690Y-80794227D01*
X85352227Y-80926690D01*
X85273818Y-80979081D01*
X85196466Y-81030766D01*
X85023395Y-81102454D01*
X84839667Y-81139000D01*
X84652333Y-81139000D01*
X84468605Y-81102454D01*
X84295534Y-81030766D01*
X84218182Y-80979081D01*
X84139773Y-80926690D01*
X84007310Y-80794227D01*
X83903235Y-80638467D01*
X83903234Y-80638466D01*
X83831546Y-80465395D01*
X83795000Y-80281667D01*
X83795000Y-80094333D01*
X83831546Y-79910605D01*
X83903234Y-79737534D01*
X84007309Y-79581775D01*
X84007310Y-79581773D01*
X84139773Y-79449310D01*
X84295533Y-79345235D01*
X84295534Y-79345234D01*
X84468605Y-79273546D01*
X84652333Y-79237000D01*
X84839667Y-79237000D01*
X85023395Y-79273546D01*
X85023395Y-79273546D01*
G37*
G36*
X85697000Y-68679000D02*
G01*
X83795000Y-68679000D01*
X83795000Y-66777000D01*
X85697000Y-66777000D01*
X85697000Y-68679000D01*
X85697000Y-68679000D01*
G37*
G36*
X115697000Y-68679000D02*
G01*
X113795000Y-68679000D01*
X113795000Y-66777000D01*
X115697000Y-66777000D01*
X115697000Y-68679000D01*
X115697000Y-68679000D01*
G37*
G36*
X115023395Y-64273546D02*
G01*
X115196466Y-64345234D01*
X115196467Y-64345235D01*
X115352227Y-64449310D01*
X115484690Y-64581773D01*
X115484691Y-64581775D01*
X115588766Y-64737534D01*
X115660454Y-64910605D01*
X115697000Y-65094333D01*
X115697000Y-65281667D01*
X115660454Y-65465395D01*
X115588766Y-65638466D01*
X115588765Y-65638467D01*
X115484690Y-65794227D01*
X115352227Y-65926690D01*
X115273818Y-65979081D01*
X115196466Y-66030766D01*
X115023395Y-66102454D01*
X114839667Y-66139000D01*
X114652333Y-66139000D01*
X114468605Y-66102454D01*
X114295534Y-66030766D01*
X114218182Y-65979081D01*
X114139773Y-65926690D01*
X114007310Y-65794227D01*
X113903235Y-65638467D01*
X113903234Y-65638466D01*
X113831546Y-65465395D01*
X113795000Y-65281667D01*
X113795000Y-65094333D01*
X113831546Y-64910605D01*
X113903234Y-64737534D01*
X114007309Y-64581775D01*
X114007310Y-64581773D01*
X114139773Y-64449310D01*
X114295533Y-64345235D01*
X114295534Y-64345234D01*
X114468605Y-64273546D01*
X114652333Y-64237000D01*
X114839667Y-64237000D01*
X115023395Y-64273546D01*
X115023395Y-64273546D01*
G37*
G36*
X85023395Y-64273546D02*
G01*
X85196466Y-64345234D01*
X85196467Y-64345235D01*
X85352227Y-64449310D01*
X85484690Y-64581773D01*
X85484691Y-64581775D01*
X85588766Y-64737534D01*
X85660454Y-64910605D01*
X85697000Y-65094333D01*
X85697000Y-65281667D01*
X85660454Y-65465395D01*
X85588766Y-65638466D01*
X85588765Y-65638467D01*
X85484690Y-65794227D01*
X85352227Y-65926690D01*
X85273818Y-65979081D01*
X85196466Y-66030766D01*
X85023395Y-66102454D01*
X84839667Y-66139000D01*
X84652333Y-66139000D01*
X84468605Y-66102454D01*
X84295534Y-66030766D01*
X84218182Y-65979081D01*
X84139773Y-65926690D01*
X84007310Y-65794227D01*
X83903235Y-65638467D01*
X83903234Y-65638466D01*
X83831546Y-65465395D01*
X83795000Y-65281667D01*
X83795000Y-65094333D01*
X83831546Y-64910605D01*
X83903234Y-64737534D01*
X84007309Y-64581775D01*
X84007310Y-64581773D01*
X84139773Y-64449310D01*
X84295533Y-64345235D01*
X84295534Y-64345234D01*
X84468605Y-64273546D01*
X84652333Y-64237000D01*
X84839667Y-64237000D01*
X85023395Y-64273546D01*
X85023395Y-64273546D01*
G37*
G36*
X95248228Y-59449703D02*
G01*
X95403100Y-59513853D01*
X95542481Y-59606985D01*
X95661015Y-59725519D01*
X95754147Y-59864900D01*
X95818297Y-60019772D01*
X95851000Y-60184184D01*
X95851000Y-60351816D01*
X95818297Y-60516228D01*
X95754147Y-60671100D01*
X95661015Y-60810481D01*
X95542481Y-60929015D01*
X95403100Y-61022147D01*
X95248228Y-61086297D01*
X95083816Y-61119000D01*
X94916184Y-61119000D01*
X94751772Y-61086297D01*
X94596900Y-61022147D01*
X94457519Y-60929015D01*
X94338985Y-60810481D01*
X94245853Y-60671100D01*
X94181703Y-60516228D01*
X94149000Y-60351816D01*
X94149000Y-60184184D01*
X94181703Y-60019772D01*
X94245853Y-59864900D01*
X94338985Y-59725519D01*
X94457519Y-59606985D01*
X94596900Y-59513853D01*
X94751772Y-59449703D01*
X94916184Y-59417000D01*
X95083816Y-59417000D01*
X95248228Y-59449703D01*
X95248228Y-59449703D01*
G37*
G36*
X85248228Y-59449703D02*
G01*
X85403100Y-59513853D01*
X85542481Y-59606985D01*
X85661015Y-59725519D01*
X85754147Y-59864900D01*
X85818297Y-60019772D01*
X85851000Y-60184184D01*
X85851000Y-60351816D01*
X85818297Y-60516228D01*
X85754147Y-60671100D01*
X85661015Y-60810481D01*
X85542481Y-60929015D01*
X85403100Y-61022147D01*
X85248228Y-61086297D01*
X85083816Y-61119000D01*
X84916184Y-61119000D01*
X84751772Y-61086297D01*
X84596900Y-61022147D01*
X84457519Y-60929015D01*
X84338985Y-60810481D01*
X84245853Y-60671100D01*
X84181703Y-60516228D01*
X84149000Y-60351816D01*
X84149000Y-60184184D01*
X84181703Y-60019772D01*
X84245853Y-59864900D01*
X84338985Y-59725519D01*
X84457519Y-59606985D01*
X84596900Y-59513853D01*
X84751772Y-59449703D01*
X84916184Y-59417000D01*
X85083816Y-59417000D01*
X85248228Y-59449703D01*
X85248228Y-59449703D01*
G37*
G36*
X115248228Y-59449703D02*
G01*
X115403100Y-59513853D01*
X115542481Y-59606985D01*
X115661015Y-59725519D01*
X115754147Y-59864900D01*
X115818297Y-60019772D01*
X115851000Y-60184184D01*
X115851000Y-60351816D01*
X115818297Y-60516228D01*
X115754147Y-60671100D01*
X115661015Y-60810481D01*
X115542481Y-60929015D01*
X115403100Y-61022147D01*
X115248228Y-61086297D01*
X115083816Y-61119000D01*
X114916184Y-61119000D01*
X114751772Y-61086297D01*
X114596900Y-61022147D01*
X114457519Y-60929015D01*
X114338985Y-60810481D01*
X114245853Y-60671100D01*
X114181703Y-60516228D01*
X114149000Y-60351816D01*
X114149000Y-60184184D01*
X114181703Y-60019772D01*
X114245853Y-59864900D01*
X114338985Y-59725519D01*
X114457519Y-59606985D01*
X114596900Y-59513853D01*
X114751772Y-59449703D01*
X114916184Y-59417000D01*
X115083816Y-59417000D01*
X115248228Y-59449703D01*
X115248228Y-59449703D01*
G37*
G36*
X105248228Y-59449703D02*
G01*
X105403100Y-59513853D01*
X105542481Y-59606985D01*
X105661015Y-59725519D01*
X105754147Y-59864900D01*
X105818297Y-60019772D01*
X105851000Y-60184184D01*
X105851000Y-60351816D01*
X105818297Y-60516228D01*
X105754147Y-60671100D01*
X105661015Y-60810481D01*
X105542481Y-60929015D01*
X105403100Y-61022147D01*
X105248228Y-61086297D01*
X105083816Y-61119000D01*
X104916184Y-61119000D01*
X104751772Y-61086297D01*
X104596900Y-61022147D01*
X104457519Y-60929015D01*
X104338985Y-60810481D01*
X104245853Y-60671100D01*
X104181703Y-60516228D01*
X104149000Y-60351816D01*
X104149000Y-60184184D01*
X104181703Y-60019772D01*
X104245853Y-59864900D01*
X104338985Y-59725519D01*
X104457519Y-59606985D01*
X104596900Y-59513853D01*
X104751772Y-59449703D01*
X104916184Y-59417000D01*
X105083816Y-59417000D01*
X105248228Y-59449703D01*
X105248228Y-59449703D01*
G37*
G36*
X121496162Y-52364368D02*
G01*
X121805724Y-52492593D01*
X121805725Y-52492594D01*
X122084324Y-52678747D01*
X122321253Y-52915676D01*
X122411738Y-53051097D01*
X122507407Y-53194276D01*
X122635632Y-53503838D01*
X122701000Y-53832465D01*
X122701000Y-54167535D01*
X122635632Y-54496162D01*
X122507407Y-54805724D01*
X122507406Y-54805725D01*
X122321253Y-55084324D01*
X122084324Y-55321253D01*
X121898170Y-55445637D01*
X121805724Y-55507407D01*
X121496162Y-55635632D01*
X121167535Y-55701000D01*
X120832465Y-55701000D01*
X120503838Y-55635632D01*
X120194276Y-55507407D01*
X120101830Y-55445637D01*
X119915676Y-55321253D01*
X119678747Y-55084324D01*
X119492594Y-54805725D01*
X119492593Y-54805724D01*
X119364368Y-54496162D01*
X119299000Y-54167535D01*
X119299000Y-53832465D01*
X119364368Y-53503838D01*
X119492593Y-53194276D01*
X119588262Y-53051097D01*
X119678747Y-52915676D01*
X119915676Y-52678747D01*
X120194275Y-52492594D01*
X120194276Y-52492593D01*
X120503838Y-52364368D01*
X120832465Y-52299000D01*
X121167535Y-52299000D01*
X121496162Y-52364368D01*
X121496162Y-52364368D01*
G37*
G36*
X79496162Y-52364368D02*
G01*
X79805724Y-52492593D01*
X79805725Y-52492594D01*
X80084324Y-52678747D01*
X80321253Y-52915676D01*
X80411738Y-53051097D01*
X80507407Y-53194276D01*
X80635632Y-53503838D01*
X80701000Y-53832465D01*
X80701000Y-54167535D01*
X80635632Y-54496162D01*
X80507407Y-54805724D01*
X80507406Y-54805725D01*
X80321253Y-55084324D01*
X80084324Y-55321253D01*
X79898170Y-55445637D01*
X79805724Y-55507407D01*
X79496162Y-55635632D01*
X79167535Y-55701000D01*
X78832465Y-55701000D01*
X78503838Y-55635632D01*
X78194276Y-55507407D01*
X78101830Y-55445637D01*
X77915676Y-55321253D01*
X77678747Y-55084324D01*
X77492594Y-54805725D01*
X77492593Y-54805724D01*
X77364368Y-54496162D01*
X77299000Y-54167535D01*
X77299000Y-53832465D01*
X77364368Y-53503838D01*
X77492593Y-53194276D01*
X77588262Y-53051097D01*
X77678747Y-52915676D01*
X77915676Y-52678747D01*
X78194275Y-52492594D01*
X78194276Y-52492593D01*
X78503838Y-52364368D01*
X78832465Y-52299000D01*
X79167535Y-52299000D01*
X79496162Y-52364368D01*
X79496162Y-52364368D01*
G37*
G36*
X115248228Y-51829703D02*
G01*
X115403100Y-51893853D01*
X115542481Y-51986985D01*
X115661015Y-52105519D01*
X115754147Y-52244900D01*
X115818297Y-52399772D01*
X115851000Y-52564184D01*
X115851000Y-52731816D01*
X115818297Y-52896228D01*
X115754147Y-53051100D01*
X115661015Y-53190481D01*
X115542481Y-53309015D01*
X115403100Y-53402147D01*
X115248228Y-53466297D01*
X115083816Y-53499000D01*
X114916184Y-53499000D01*
X114751772Y-53466297D01*
X114596900Y-53402147D01*
X114457519Y-53309015D01*
X114338985Y-53190481D01*
X114245853Y-53051100D01*
X114181703Y-52896228D01*
X114149000Y-52731816D01*
X114149000Y-52564184D01*
X114181703Y-52399772D01*
X114245853Y-52244900D01*
X114338985Y-52105519D01*
X114457519Y-51986985D01*
X114596900Y-51893853D01*
X114751772Y-51829703D01*
X114916184Y-51797000D01*
X115083816Y-51797000D01*
X115248228Y-51829703D01*
X115248228Y-51829703D01*
G37*
G36*
X105248228Y-51829703D02*
G01*
X105403100Y-51893853D01*
X105542481Y-51986985D01*
X105661015Y-52105519D01*
X105754147Y-52244900D01*
X105818297Y-52399772D01*
X105851000Y-52564184D01*
X105851000Y-52731816D01*
X105818297Y-52896228D01*
X105754147Y-53051100D01*
X105661015Y-53190481D01*
X105542481Y-53309015D01*
X105403100Y-53402147D01*
X105248228Y-53466297D01*
X105083816Y-53499000D01*
X104916184Y-53499000D01*
X104751772Y-53466297D01*
X104596900Y-53402147D01*
X104457519Y-53309015D01*
X104338985Y-53190481D01*
X104245853Y-53051100D01*
X104181703Y-52896228D01*
X104149000Y-52731816D01*
X104149000Y-52564184D01*
X104181703Y-52399772D01*
X104245853Y-52244900D01*
X104338985Y-52105519D01*
X104457519Y-51986985D01*
X104596900Y-51893853D01*
X104751772Y-51829703D01*
X104916184Y-51797000D01*
X105083816Y-51797000D01*
X105248228Y-51829703D01*
X105248228Y-51829703D01*
G37*
G36*
X95248228Y-51829703D02*
G01*
X95403100Y-51893853D01*
X95542481Y-51986985D01*
X95661015Y-52105519D01*
X95754147Y-52244900D01*
X95818297Y-52399772D01*
X95851000Y-52564184D01*
X95851000Y-52731816D01*
X95818297Y-52896228D01*
X95754147Y-53051100D01*
X95661015Y-53190481D01*
X95542481Y-53309015D01*
X95403100Y-53402147D01*
X95248228Y-53466297D01*
X95083816Y-53499000D01*
X94916184Y-53499000D01*
X94751772Y-53466297D01*
X94596900Y-53402147D01*
X94457519Y-53309015D01*
X94338985Y-53190481D01*
X94245853Y-53051100D01*
X94181703Y-52896228D01*
X94149000Y-52731816D01*
X94149000Y-52564184D01*
X94181703Y-52399772D01*
X94245853Y-52244900D01*
X94338985Y-52105519D01*
X94457519Y-51986985D01*
X94596900Y-51893853D01*
X94751772Y-51829703D01*
X94916184Y-51797000D01*
X95083816Y-51797000D01*
X95248228Y-51829703D01*
X95248228Y-51829703D01*
G37*
G36*
X85248228Y-51829703D02*
G01*
X85403100Y-51893853D01*
X85542481Y-51986985D01*
X85661015Y-52105519D01*
X85754147Y-52244900D01*
X85818297Y-52399772D01*
X85851000Y-52564184D01*
X85851000Y-52731816D01*
X85818297Y-52896228D01*
X85754147Y-53051100D01*
X85661015Y-53190481D01*
X85542481Y-53309015D01*
X85403100Y-53402147D01*
X85248228Y-53466297D01*
X85083816Y-53499000D01*
X84916184Y-53499000D01*
X84751772Y-53466297D01*
X84596900Y-53402147D01*
X84457519Y-53309015D01*
X84338985Y-53190481D01*
X84245853Y-53051100D01*
X84181703Y-52896228D01*
X84149000Y-52731816D01*
X84149000Y-52564184D01*
X84181703Y-52399772D01*
X84245853Y-52244900D01*
X84338985Y-52105519D01*
X84457519Y-51986985D01*
X84596900Y-51893853D01*
X84751772Y-51829703D01*
X84916184Y-51797000D01*
X85083816Y-51797000D01*
X85248228Y-51829703D01*
X85248228Y-51829703D01*
G37*
M02*
