%FSLAX45Y45*%
G04 Gerber Fmt 4.5, Leading zero omitted, Abs format (unit mm)*
G04 Created by KiCad (PCBNEW (5.1.2)-2) date 2020-04-23 16:25:42*
%MOMM*%
%LPD*%
G04 APERTURE LIST*
%ADD10C,0.050000*%
%ADD11C,0.200000*%
%ADD12C,0.300000*%
G04 APERTURE END LIST*
D10*
X12400000Y-15000000D02*
X12500000Y-14900000D01*
X7600000Y-15000000D02*
X7500000Y-14900000D01*
X7600000Y-5000000D02*
X7500000Y-5100000D01*
X12500000Y-5100000D02*
X12400000Y-5000000D01*
X7500000Y-5100000D02*
X7500000Y-14900000D01*
X7600000Y-15000000D02*
X12400000Y-15000000D01*
X12500000Y-5100000D02*
X12500000Y-14900000D01*
X7600000Y-5000000D02*
X12400000Y-5000000D01*
D11*
X7735000Y-5235000D02*
X8065000Y-5565000D01*
X8065000Y-5235000D02*
X7735000Y-5565000D01*
X11935000Y-14435000D02*
X12265000Y-14765000D01*
X12265000Y-14435000D02*
X11935000Y-14765000D01*
X7735000Y-14435000D02*
X8065000Y-14765000D01*
X8065000Y-14435000D02*
X7735000Y-14765000D01*
X11935000Y-5235000D02*
X12265000Y-5565000D01*
X12265000Y-5235000D02*
X11935000Y-5565000D01*
D12*
X7783928Y-15468214D02*
X7783928Y-15168214D01*
X7855357Y-15168214D01*
X7898214Y-15182500D01*
X7926786Y-15211071D01*
X7941071Y-15239643D01*
X7955357Y-15296786D01*
X7955357Y-15339643D01*
X7941071Y-15396786D01*
X7926786Y-15425357D01*
X7898214Y-15453929D01*
X7855357Y-15468214D01*
X7783928Y-15468214D01*
X8083928Y-15468214D02*
X8083928Y-15268214D01*
X8083928Y-15325357D02*
X8098214Y-15296786D01*
X8112500Y-15282500D01*
X8141071Y-15268214D01*
X8169643Y-15268214D01*
X8269643Y-15468214D02*
X8269643Y-15268214D01*
X8269643Y-15168214D02*
X8255357Y-15182500D01*
X8269643Y-15196786D01*
X8283928Y-15182500D01*
X8269643Y-15168214D01*
X8269643Y-15196786D01*
X8455357Y-15468214D02*
X8426786Y-15453929D01*
X8412500Y-15425357D01*
X8412500Y-15168214D01*
X8612500Y-15468214D02*
X8583928Y-15453929D01*
X8569643Y-15425357D01*
X8569643Y-15168214D01*
X8955357Y-15468214D02*
X8955357Y-15168214D01*
X9055357Y-15382500D01*
X9155357Y-15168214D01*
X9155357Y-15468214D01*
X9426786Y-15468214D02*
X9426786Y-15311071D01*
X9412500Y-15282500D01*
X9383928Y-15268214D01*
X9326786Y-15268214D01*
X9298214Y-15282500D01*
X9426786Y-15453929D02*
X9398214Y-15468214D01*
X9326786Y-15468214D01*
X9298214Y-15453929D01*
X9283928Y-15425357D01*
X9283928Y-15396786D01*
X9298214Y-15368214D01*
X9326786Y-15353929D01*
X9398214Y-15353929D01*
X9426786Y-15339643D01*
X9569643Y-15268214D02*
X9569643Y-15568214D01*
X9569643Y-15282500D02*
X9598214Y-15268214D01*
X9655357Y-15268214D01*
X9683928Y-15282500D01*
X9698214Y-15296786D01*
X9712500Y-15325357D01*
X9712500Y-15411071D01*
X9698214Y-15439643D01*
X9683928Y-15453929D01*
X9655357Y-15468214D01*
X9598214Y-15468214D01*
X9569643Y-15453929D01*
X9841071Y-15439643D02*
X9855357Y-15453929D01*
X9841071Y-15468214D01*
X9826786Y-15453929D01*
X9841071Y-15439643D01*
X9841071Y-15468214D01*
X9841071Y-15282500D02*
X9855357Y-15296786D01*
X9841071Y-15311071D01*
X9826786Y-15296786D01*
X9841071Y-15282500D01*
X9841071Y-15311071D01*
X7167500Y-15797500D02*
X7497500Y-16127500D01*
X7497500Y-15797500D02*
X7167500Y-16127500D01*
X7755357Y-15798214D02*
X7941071Y-15798214D01*
X7841071Y-15912500D01*
X7883928Y-15912500D01*
X7912500Y-15926786D01*
X7926786Y-15941071D01*
X7941071Y-15969643D01*
X7941071Y-16041071D01*
X7926786Y-16069643D01*
X7912500Y-16083929D01*
X7883928Y-16098214D01*
X7798214Y-16098214D01*
X7769643Y-16083929D01*
X7755357Y-16069643D01*
X8069643Y-16069643D02*
X8083928Y-16083929D01*
X8069643Y-16098214D01*
X8055357Y-16083929D01*
X8069643Y-16069643D01*
X8069643Y-16098214D01*
X8183928Y-15798214D02*
X8369643Y-15798214D01*
X8269643Y-15912500D01*
X8312500Y-15912500D01*
X8341071Y-15926786D01*
X8355357Y-15941071D01*
X8369643Y-15969643D01*
X8369643Y-16041071D01*
X8355357Y-16069643D01*
X8341071Y-16083929D01*
X8312500Y-16098214D01*
X8226786Y-16098214D01*
X8198214Y-16083929D01*
X8183928Y-16069643D01*
X8555357Y-15798214D02*
X8583928Y-15798214D01*
X8612500Y-15812500D01*
X8626786Y-15826786D01*
X8641071Y-15855357D01*
X8655357Y-15912500D01*
X8655357Y-15983929D01*
X8641071Y-16041071D01*
X8626786Y-16069643D01*
X8612500Y-16083929D01*
X8583928Y-16098214D01*
X8555357Y-16098214D01*
X8526786Y-16083929D01*
X8512500Y-16069643D01*
X8498214Y-16041071D01*
X8483928Y-15983929D01*
X8483928Y-15912500D01*
X8498214Y-15855357D01*
X8512500Y-15826786D01*
X8526786Y-15812500D01*
X8555357Y-15798214D01*
X8783928Y-16098214D02*
X8783928Y-15898214D01*
X8783928Y-15926786D02*
X8798214Y-15912500D01*
X8826786Y-15898214D01*
X8869643Y-15898214D01*
X8898214Y-15912500D01*
X8912500Y-15941071D01*
X8912500Y-16098214D01*
X8912500Y-15941071D02*
X8926786Y-15912500D01*
X8955357Y-15898214D01*
X8998214Y-15898214D01*
X9026786Y-15912500D01*
X9041071Y-15941071D01*
X9041071Y-16098214D01*
X9183928Y-16098214D02*
X9183928Y-15898214D01*
X9183928Y-15926786D02*
X9198214Y-15912500D01*
X9226786Y-15898214D01*
X9269643Y-15898214D01*
X9298214Y-15912500D01*
X9312500Y-15941071D01*
X9312500Y-16098214D01*
X9312500Y-15941071D02*
X9326786Y-15912500D01*
X9355357Y-15898214D01*
X9398214Y-15898214D01*
X9426786Y-15912500D01*
X9441071Y-15941071D01*
X9441071Y-16098214D01*
X10026786Y-15783929D02*
X9769643Y-16169643D01*
X10412500Y-15798214D02*
X10441071Y-15798214D01*
X10469643Y-15812500D01*
X10483928Y-15826786D01*
X10498214Y-15855357D01*
X10512500Y-15912500D01*
X10512500Y-15983929D01*
X10498214Y-16041071D01*
X10483928Y-16069643D01*
X10469643Y-16083929D01*
X10441071Y-16098214D01*
X10412500Y-16098214D01*
X10383928Y-16083929D01*
X10369643Y-16069643D01*
X10355357Y-16041071D01*
X10341071Y-15983929D01*
X10341071Y-15912500D01*
X10355357Y-15855357D01*
X10369643Y-15826786D01*
X10383928Y-15812500D01*
X10412500Y-15798214D01*
X10641071Y-16069643D02*
X10655357Y-16083929D01*
X10641071Y-16098214D01*
X10626786Y-16083929D01*
X10641071Y-16069643D01*
X10641071Y-16098214D01*
X10941071Y-16098214D02*
X10769643Y-16098214D01*
X10855357Y-16098214D02*
X10855357Y-15798214D01*
X10826786Y-15841071D01*
X10798214Y-15869643D01*
X10769643Y-15883929D01*
X11041071Y-15798214D02*
X11226786Y-15798214D01*
X11126786Y-15912500D01*
X11169643Y-15912500D01*
X11198214Y-15926786D01*
X11212500Y-15941071D01*
X11226786Y-15969643D01*
X11226786Y-16041071D01*
X11212500Y-16069643D01*
X11198214Y-16083929D01*
X11169643Y-16098214D01*
X11083928Y-16098214D01*
X11055357Y-16083929D01*
X11041071Y-16069643D01*
X11412500Y-15798214D02*
X11441071Y-15798214D01*
X11469643Y-15812500D01*
X11483928Y-15826786D01*
X11498214Y-15855357D01*
X11512500Y-15912500D01*
X11512500Y-15983929D01*
X11498214Y-16041071D01*
X11483928Y-16069643D01*
X11469643Y-16083929D01*
X11441071Y-16098214D01*
X11412500Y-16098214D01*
X11383928Y-16083929D01*
X11369643Y-16069643D01*
X11355357Y-16041071D01*
X11341071Y-15983929D01*
X11341071Y-15912500D01*
X11355357Y-15855357D01*
X11369643Y-15826786D01*
X11383928Y-15812500D01*
X11412500Y-15798214D01*
X11626786Y-15798214D02*
X11626786Y-15855357D01*
X11741071Y-15798214D02*
X11741071Y-15855357D01*
X12183928Y-16212500D02*
X12169643Y-16198214D01*
X12141071Y-16155357D01*
X12126786Y-16126786D01*
X12112500Y-16083929D01*
X12098214Y-16012500D01*
X12098214Y-15955357D01*
X12112500Y-15883929D01*
X12126786Y-15841071D01*
X12141071Y-15812500D01*
X12169643Y-15769643D01*
X12183928Y-15755357D01*
X12426786Y-15898214D02*
X12426786Y-16098214D01*
X12355357Y-15783929D02*
X12283928Y-15998214D01*
X12469643Y-15998214D01*
X12812500Y-16098214D02*
X12812500Y-15798214D01*
X12941071Y-16098214D02*
X12941071Y-15941071D01*
X12926786Y-15912500D01*
X12898214Y-15898214D01*
X12855357Y-15898214D01*
X12826786Y-15912500D01*
X12812500Y-15926786D01*
X13126786Y-16098214D02*
X13098214Y-16083929D01*
X13083928Y-16069643D01*
X13069643Y-16041071D01*
X13069643Y-15955357D01*
X13083928Y-15926786D01*
X13098214Y-15912500D01*
X13126786Y-15898214D01*
X13169643Y-15898214D01*
X13198214Y-15912500D01*
X13212500Y-15926786D01*
X13226786Y-15955357D01*
X13226786Y-16041071D01*
X13212500Y-16069643D01*
X13198214Y-16083929D01*
X13169643Y-16098214D01*
X13126786Y-16098214D01*
X13398214Y-16098214D02*
X13369643Y-16083929D01*
X13355357Y-16055357D01*
X13355357Y-15798214D01*
X13626786Y-16083929D02*
X13598214Y-16098214D01*
X13541071Y-16098214D01*
X13512500Y-16083929D01*
X13498214Y-16055357D01*
X13498214Y-15941071D01*
X13512500Y-15912500D01*
X13541071Y-15898214D01*
X13598214Y-15898214D01*
X13626786Y-15912500D01*
X13641071Y-15941071D01*
X13641071Y-15969643D01*
X13498214Y-15998214D01*
X13755357Y-16083929D02*
X13783928Y-16098214D01*
X13841071Y-16098214D01*
X13869643Y-16083929D01*
X13883928Y-16055357D01*
X13883928Y-16041071D01*
X13869643Y-16012500D01*
X13841071Y-15998214D01*
X13798214Y-15998214D01*
X13769643Y-15983929D01*
X13755357Y-15955357D01*
X13755357Y-15941071D01*
X13769643Y-15912500D01*
X13798214Y-15898214D01*
X13841071Y-15898214D01*
X13869643Y-15912500D01*
X13983928Y-16212500D02*
X13998214Y-16198214D01*
X14026786Y-16155357D01*
X14041071Y-16126786D01*
X14055357Y-16083929D01*
X14069643Y-16012500D01*
X14069643Y-15955357D01*
X14055357Y-15883929D01*
X14041071Y-15841071D01*
X14026786Y-15812500D01*
X13998214Y-15769643D01*
X13983928Y-15755357D01*
X14526786Y-16212500D02*
X14512500Y-16198214D01*
X14483928Y-16155357D01*
X14469643Y-16126786D01*
X14455357Y-16083929D01*
X14441071Y-16012500D01*
X14441071Y-15955357D01*
X14455357Y-15883929D01*
X14469643Y-15841071D01*
X14483928Y-15812500D01*
X14512500Y-15769643D01*
X14526786Y-15755357D01*
X14641071Y-15898214D02*
X14641071Y-16098214D01*
X14641071Y-15926786D02*
X14655357Y-15912500D01*
X14683928Y-15898214D01*
X14726786Y-15898214D01*
X14755357Y-15912500D01*
X14769643Y-15941071D01*
X14769643Y-16098214D01*
X14955357Y-16098214D02*
X14926786Y-16083929D01*
X14912500Y-16069643D01*
X14898214Y-16041071D01*
X14898214Y-15955357D01*
X14912500Y-15926786D01*
X14926786Y-15912500D01*
X14955357Y-15898214D01*
X14998214Y-15898214D01*
X15026786Y-15912500D01*
X15041071Y-15926786D01*
X15055357Y-15955357D01*
X15055357Y-16041071D01*
X15041071Y-16069643D01*
X15026786Y-16083929D01*
X14998214Y-16098214D01*
X14955357Y-16098214D01*
X15141071Y-15898214D02*
X15255357Y-15898214D01*
X15183928Y-15798214D02*
X15183928Y-16055357D01*
X15198214Y-16083929D01*
X15226786Y-16098214D01*
X15255357Y-16098214D01*
X15583928Y-15898214D02*
X15583928Y-16198214D01*
X15583928Y-15912500D02*
X15612500Y-15898214D01*
X15669643Y-15898214D01*
X15698214Y-15912500D01*
X15712500Y-15926786D01*
X15726786Y-15955357D01*
X15726786Y-16041071D01*
X15712500Y-16069643D01*
X15698214Y-16083929D01*
X15669643Y-16098214D01*
X15612500Y-16098214D01*
X15583928Y-16083929D01*
X15898214Y-16098214D02*
X15869643Y-16083929D01*
X15855357Y-16055357D01*
X15855357Y-15798214D01*
X16141071Y-16098214D02*
X16141071Y-15941071D01*
X16126786Y-15912500D01*
X16098214Y-15898214D01*
X16041071Y-15898214D01*
X16012500Y-15912500D01*
X16141071Y-16083929D02*
X16112500Y-16098214D01*
X16041071Y-16098214D01*
X16012500Y-16083929D01*
X15998214Y-16055357D01*
X15998214Y-16026786D01*
X16012500Y-15998214D01*
X16041071Y-15983929D01*
X16112500Y-15983929D01*
X16141071Y-15969643D01*
X16241071Y-15898214D02*
X16355357Y-15898214D01*
X16283928Y-15798214D02*
X16283928Y-16055357D01*
X16298214Y-16083929D01*
X16326786Y-16098214D01*
X16355357Y-16098214D01*
X16569643Y-16083929D02*
X16541071Y-16098214D01*
X16483928Y-16098214D01*
X16455357Y-16083929D01*
X16441071Y-16055357D01*
X16441071Y-15941071D01*
X16455357Y-15912500D01*
X16483928Y-15898214D01*
X16541071Y-15898214D01*
X16569643Y-15912500D01*
X16583928Y-15941071D01*
X16583928Y-15969643D01*
X16441071Y-15998214D01*
X16841071Y-16098214D02*
X16841071Y-15798214D01*
X16841071Y-16083929D02*
X16812500Y-16098214D01*
X16755357Y-16098214D01*
X16726786Y-16083929D01*
X16712500Y-16069643D01*
X16698214Y-16041071D01*
X16698214Y-15955357D01*
X16712500Y-15926786D01*
X16726786Y-15912500D01*
X16755357Y-15898214D01*
X16812500Y-15898214D01*
X16841071Y-15912500D01*
X16955357Y-16212500D02*
X16969643Y-16198214D01*
X16998214Y-16155357D01*
X17012500Y-16126786D01*
X17026786Y-16083929D01*
X17041071Y-16012500D01*
X17041071Y-15955357D01*
X17026786Y-15883929D01*
X17012500Y-15841071D01*
X16998214Y-15812500D01*
X16969643Y-15769643D01*
X16955357Y-15755357D01*
M02*
