M48
; DRILL file {KiCad (5.1.2)-2} date 4/23/2020 4:25:41 PM
; FORMAT={-:-/ absolute / metric / decimal}
; #@! TF.CreationDate,2020-04-23T16:25:41-04:00
; #@! TF.GenerationSoftware,Kicad,Pcbnew,(5.1.2)-2
; #@! TF.FileFunction,Plated,1,2,PTH
FMAT,2
METRIC
T1C0.500
T2C0.750
T3C0.800
T4C0.900
T5C1.000
T6C1.500
%
G90
G05
T1
X86.106Y-114.808
X88.9Y-54.864
X89.408Y-115.062
X89.916Y-144.526
X90.4Y-74.64
X90.77Y-77.61
X91.694Y-106.426
X91.694Y-134.366
X99.314Y-116.84
X99.822Y-69.088
X99.822Y-74.676
X103.378Y-121.666
X103.886Y-128.524
X104.62Y-76.078
X109.178Y-80.188
X109.22Y-82.804
X109.728Y-52.832
X110.998Y-60.198
X110.998Y-120.142
X111.506Y-141.224
X112.268Y-113.792
X112.268Y-115.062
X113.284Y-133.604
X116.84Y-110.49
X118.872Y-106.934
X118.872Y-117.602
X121.158Y-120.142
X121.158Y-126.492
X123.444Y-140.97
T2
X98.73Y-106.458
X100.0Y-106.458
X101.27Y-106.458
X113.73Y-106.458
X115.0Y-106.458
X116.27Y-106.458
X83.73Y-106.458
X85.0Y-106.458
X86.27Y-106.458
X113.73Y-117.602
X115.0Y-117.602
X116.27Y-117.602
X89.408Y-130.048
X89.408Y-131.318
X89.408Y-132.588
T3
X85.598Y-125.984
X93.218Y-125.984
X107.95Y-125.984
X107.95Y-128.524
X107.95Y-131.064
X107.95Y-133.604
X107.95Y-136.144
X107.95Y-138.684
X107.95Y-141.224
X107.95Y-143.764
X115.57Y-125.984
X115.57Y-128.524
X115.57Y-131.064
X115.57Y-133.604
X115.57Y-136.144
X115.57Y-138.684
X115.57Y-141.224
X115.57Y-143.764
X105.0Y-52.648
X105.0Y-60.268
X121.158Y-133.35
X121.158Y-140.97
X91.694Y-114.046
X91.694Y-121.666
X94.234Y-114.046
X94.234Y-121.666
X96.774Y-114.046
X96.774Y-121.666
X99.314Y-114.046
X99.314Y-121.666
X95.0Y-52.648
X95.0Y-60.268
X80.55Y-117.348
X82.55Y-117.348
X88.392Y-137.922
X96.012Y-137.922
X85.0Y-52.648
X85.0Y-60.268
X121.158Y-110.35
X121.158Y-117.97
X104.9Y-106.426
X104.9Y-114.046
X78.232Y-137.922
X85.852Y-137.922
X81.534Y-122.936
X81.534Y-130.556
X109.474Y-106.426
X109.474Y-114.046
X78.994Y-104.394
X78.994Y-112.014
X121.158Y-99.35
X121.158Y-106.97
X96.19Y-100.0
X103.81Y-100.0
X121.158Y-122.35
X121.158Y-129.97
X115.0Y-52.648
X115.0Y-60.268
X98.552Y-130.048
X98.552Y-137.668
X96.052Y-125.984
X101.052Y-125.984
T4
X84.746Y-95.188
X84.746Y-97.728
X84.746Y-80.188
X84.746Y-82.728
X99.746Y-80.188
X99.746Y-82.728
X114.746Y-80.188
X114.746Y-82.728
X114.746Y-65.188
X114.746Y-67.728
X114.746Y-95.188
X114.746Y-97.728
X84.746Y-65.188
X84.746Y-67.728
T5
X87.122Y-144.526
X87.122Y-147.066
T6
X96.75Y-142.276
X96.75Y-146.776
X103.25Y-142.276
X103.25Y-146.776
T0
M30
